<?xml version="1.0" encoding="UTF-8" standalone="no"?>
<!-- Created with Inkscape (http://www.inkscape.org/) -->

<svg
   version="1.1"
   id="svg1"
   viewBox="0 0 395 127"
   sodipodi:docname="ansys.svg"
   inkscape:version="1.4.2 (f4327f4, 2025-05-13)"
   xmlns:inkscape="http://www.inkscape.org/namespaces/inkscape"
   xmlns:sodipodi="http://sodipodi.sourceforge.net/DTD/sodipodi-0.dtd"
   xmlns="http://www.w3.org/2000/svg"
   xmlns:svg="http://www.w3.org/2000/svg">
  <defs
     id="defs1" />
  <sodipodi:namedview
     id="namedview1"
     pagecolor="#ffffff"
     bordercolor="#000000"
     borderopacity="0.25"
     inkscape:showpageshadow="2"
     inkscape:pageopacity="0.0"
     inkscape:pagecheckerboard="0"
     inkscape:deskcolor="#d1d1d1"
     inkscape:zoom="4.3106662"
     inkscape:cx="181.0625"
     inkscape:cy="59.503564"
     inkscape:window-width="2560"
     inkscape:window-height="1406"
     inkscape:window-x="-11"
     inkscape:window-y="-11"
     inkscape:window-maximized="1"
     inkscape:current-layer="g1" />
  <g
     inkscape:groupmode="layer"
     inkscape:label="Image"
     id="g1">
    <g
       id="g2"
       transform="translate(2.5091795,6.3556234)">
      <path
         style="fill:#b9b9b9;fill-opacity:1"
         d="m 217.26903,95.994717 c 0.97297,-0.253543 2.32297,-0.236869 3,0.03705 0.67703,0.273923 -0.11903,0.481368 -1.76903,0.460988 -1.65,-0.02038 -2.20394,-0.244499 -1.23097,-0.498042 z m 124.98097,0.0037 c 0.9625,-0.251527 2.5375,-0.251527 3.5,0 0.9625,0.251528 0.175,0.457323 -1.75,0.457323 -1.925,0 -2.7125,-0.205795 -1.75,-0.457323 z M 97.291588,94.945209 c 3.735372,-0.192927 9.585372,-0.191496 13.000002,0.0032 3.41462,0.194677 0.35841,0.352527 -6.79159,0.350778 -7.15,-0.0018 -9.943785,-0.161031 -6.208412,-0.353959 z m 28.958412,0.0075 c 2.6125,-0.205998 6.8875,-0.205998 9.5,0 2.6125,0.205999 0.475,0.374543 -4.75,0.374543 -5.225,0 -7.3625,-0.168544 -4.75,-0.374543 z m 41.53352,-0.0034 c 2.90594,-0.202642 7.40594,-0.200511 10,0.0047 2.59406,0.205246 0.21648,0.371044 -5.28352,0.36844 -5.5,-0.0026 -7.62242,-0.170532 -4.71648,-0.373174 z"
         id="path7" />
      <path
         style="fill:#a3a3a3;fill-opacity:1"
         d="m 15.441878,92.970477 c 0.374553,-0.980523 8.415857,-20.567461 17.869564,-43.52653 L 50.5,7.7001871 62.218615,7.6939474 c 8.969128,-0.00478 11.604697,0.2870423 11.233083,1.2437603 -0.267043,0.6875 -8.264402,20.1500003 -17.771909,43.2500003 l -17.286377,42 -11.81627,0.282769 c -10.986479,0.262913 -11.768446,0.157576 -11.135264,-1.5 z M 152.8125,47.004594 c 0.72188,-0.288871 1.58438,-0.253345 1.91667,0.07895 0.33229,0.332292 -0.25834,0.56864 -1.3125,0.525219 -1.16495,-0.04798 -1.4019,-0.28494 -0.60417,-0.604166 z"
         id="path6" />
      <path
         style="fill:#8c8c8c;fill-opacity:1"
         d="m 140.41508,76.687708 c 0,-10.175 0.1485,-14.3375 0.32999,-9.25 0.18149,5.0875 0.18149,13.4125 0,18.5 -0.18149,5.0875 -0.32999,0.925 -0.32999,-9.25 z M 322,41.310152 c 0,-0.207655 0.7875,-0.995155 1.75,-1.75 1.58606,-1.24387 1.62143,-1.2085 0.37756,0.377556 C 322.82119,41.603456 322,42.133187 322,41.310152 Z"
         id="path5" />
      <path
         style="fill:#606060;fill-opacity:1"
         d="m 126.28017,33.951436 c 2.6291,-0.206676 6.6791,-0.204183 9,0.0055 2.32091,0.209724 0.16983,0.378823 -4.78017,0.375775 -4.95,-0.003 -6.84892,-0.17464 -4.21983,-0.381316 z m 128,0 c 2.6291,-0.206676 6.6791,-0.204183 9,0.0055 2.32091,0.209724 0.16983,0.378823 -4.78017,0.375775 -4.95,-0.003 -6.84892,-0.17464 -4.21983,-0.381316 z m 48,0 c 2.6291,-0.206676 6.6791,-0.204183 9,0.0055 2.32091,0.209724 0.16983,0.378823 -4.78017,0.375775 -4.95,-0.003 -6.84892,-0.17464 -4.21983,-0.381316 z"
         id="path4" />
      <path
         style="fill:#494949;fill-opacity:1"
         d="m 267.75,116.9555 c 2.3375,-0.21053 6.1625,-0.21053 8.5,0 2.3375,0.21054 0.425,0.38279 -4.25,0.38279 -4.675,0 -6.5875,-0.17225 -4.25,-0.38279 z"
         id="path3" />
      <path
         style="fill:#333333;fill-opacity:1"
         d="m 268.49551,104.60861 5.20176,-12.57909 -11.32306,-27.383057 c -6.22768,-15.060681 -11.54544,-27.962589 -11.81725,-28.670906 -0.3801,-0.990527 1.54377,-1.287849 8.33321,-1.287849 h 8.82739 l 5.82332,14.25 c 3.20283,7.8375 6.46407,15.812189 7.2472,17.721532 l 1.42388,3.471533 1.27971,-2.471533 c 0.70384,-1.359343 4.08702,-9.334032 7.51819,-17.721532 l 6.23849,-15.25 h 8.81047 8.81047 l -6.49937,15.75 c -3.57465,8.6625 -11.21244,27.225 -16.97287,41.25 l -10.47352,25.500002 h -8.81489 -8.81489 z M 205.38875,94.261966 c -3.36119,-0.765624 -7.96522,-2.337868 -10.23118,-3.493875 l -4.11993,-2.10183 2.08689,-5.239277 c 1.14779,-2.881602 2.28004,-5.717263 2.5161,-6.30147 0.26037,-0.644344 2.78108,0.103499 6.40776,1.901051 4.49697,2.228905 7.84932,3.083304 13.5276,3.447713 8.15713,0.523493 11.88608,-0.621516 12.74711,-3.914123 0.93929,-3.591836 -2.40356,-5.697161 -13.24487,-8.341613 -13.13669,-3.20435 -18.29171,-6.107869 -20.45842,-11.523014 -2.08221,-5.203955 -2.01766,-8.545769 0.26092,-13.50782 2.25292,-4.906153 4.3468,-6.828413 10.31267,-9.467404 6.2146,-2.749011 14.99562,-3.549021 22.32733,-2.034169 C 233.82749,34.989213 243,39.098972 243,40.621648 c 0,0.869614 -3.82073,10.220126 -4.42158,10.820975 -0.16275,0.162745 -2.66942,-0.935524 -5.57038,-2.440597 C 222.81907,43.7158 210,44.933566 210,51.187708 c 0,3.419716 2.88553,4.937006 14.21061,7.472334 15.37832,3.442718 20.30086,7.923793 20.27249,18.454413 -0.0141,5.248774 -0.45481,6.847382 -2.69839,9.788865 -4.15032,5.441347 -10.62595,7.998939 -21.28471,8.40653 -5.37362,0.205487 -11.46241,-0.216738 -15.11125,-1.047884 z m 125.37135,-0.06916 c -7.29743,-1.848735 -14.06605,-5.279006 -13.45278,-6.817744 0.26028,-0.653046 1.27079,-3.212357 2.24558,-5.687357 0.97478,-2.475 1.91481,-4.67815 2.08894,-4.895889 0.17413,-0.217738 3.13607,0.869412 6.58208,2.415891 C 340.2484,84.603977 354,83.579328 354,77.287099 c 0,-3.437075 -1.58004,-4.304937 -12.57876,-6.909106 -17.0161,-4.028899 -21.14797,-7.203766 -22.05554,-16.947115 -0.35989,-3.863646 -0.0118,-6.145343 1.32295,-8.672068 5.74398,-10.873415 23.67532,-15.02248 39.43717,-9.125217 9.20216,3.442969 9.33845,3.646759 6.73529,10.071011 -1.22198,3.015707 -2.32089,5.625858 -2.44202,5.800336 -0.12112,0.174479 -2.62747,-0.90458 -5.56966,-2.397907 -3.63959,-1.8473 -7.48041,-2.868729 -12.01645,-3.195663 -6.11796,-0.44095 -6.87441,-0.273138 -9.18521,2.037663 -3.0653,3.065299 -2.58335,6.131922 1.19745,7.619345 1.46013,0.574436 6.42782,1.960964 11.03932,3.081174 15.17972,3.687404 20.54403,8.526527 20.54403,18.532694 0,11.293136 -8.51081,17.53183 -24.72891,18.127066 -5.83665,0.214217 -11.29793,-0.19393 -14.93956,-1.116503 z M 90.271599,92.937708 C 89.905502,91.975208 84.803753,79.545033 78.934378,65.315097 l -10.67159,-25.87261 5.424842,-13.12739 c 2.983664,-7.220064 5.753611,-13.458964 6.155439,-13.864222 0.401828,-0.405258 8.545468,17.594742 18.096977,40 9.551504,22.405258 17.548994,41.074333 17.772184,41.486833 0.22319,0.4125 -5.25988,0.75 -12.1846,0.75 -11.070616,0 -12.670748,-0.211242 -13.256031,-1.75 z M 122,64.687708 v -30 h 9 9 v 4.222506 c 0,4.094431 0.0469,4.155553 1.5461,2.015136 6.40725,-9.147632 25.86014,-10.764735 33.81395,-2.810926 5.21695,5.216954 5.87855,8.725697 6.37757,33.823284 l 0.45234,22.75 H 172.59498 163 V 73.610785 52.533862 l -3.04775,-3.047748 c -2.7231,-2.723107 -3.52862,-2.993546 -7.56226,-2.538896 -2.82306,0.318199 -5.47616,1.395258 -7.08113,2.874671 C 140.60193,54.16058 140,57.203027 140,76.655589 v 18.032119 h -9 -9 z"
         id="path2" />
    </g>
  </g>
</svg>
