<?xml version="1.0" encoding="UTF-8" standalone="no"?>
<!-- Created with Inkscape (http://www.inkscape.org/) -->

<svg
   version="1.1"
   id="svg1"
   viewBox="0 0 792.64001 269.12"
   sodipodi:docname="Asset 13.svg"
   inkscape:version="1.4.2 (f4327f4, 2025-05-13)"
   xmlns:inkscape="http://www.inkscape.org/namespaces/inkscape"
   xmlns:sodipodi="http://sodipodi.sourceforge.net/DTD/sodipodi-0.dtd"
   xmlns="http://www.w3.org/2000/svg"
   xmlns:svg="http://www.w3.org/2000/svg">
  <defs
     id="defs1" />
  <sodipodi:namedview
     id="namedview1"
     pagecolor="#ffffff"
     bordercolor="#000000"
     borderopacity="0.25"
     inkscape:showpageshadow="2"
     inkscape:pageopacity="0.0"
     inkscape:pagecheckerboard="0"
     inkscape:deskcolor="#d1d1d1"
     inkscape:zoom="2.1481544"
     inkscape:cx="311.66289"
     inkscape:cy="167.81848"
     inkscape:window-width="2560"
     inkscape:window-height="1406"
     inkscape:window-x="-11"
     inkscape:window-y="-11"
     inkscape:window-maximized="1"
     inkscape:current-layer="g1" />
  <g
     inkscape:groupmode="layer"
     inkscape:label="Image"
     id="g1">
    <g
       id="g2"
       transform="translate(-1.3166777,9.216744)">
      <path
         style="fill:#b9b9b9;fill-opacity:1"
         d="m 237.45336,144.32147 c 0.231,-0.0924 0.507,-0.0811 0.61333,0.0253 0.10634,0.10633 -0.0827,0.18197 -0.42,0.16807 -0.37278,-0.0154 -0.4486,-0.0912 -0.19333,-0.19333 z m -97.16491,-17.62136 c 11.55829,-0.0465 30.56629,-0.0465 42.24,-10e-6 11.6737,0.0465 2.21691,0.0846 -21.01509,0.0846 -23.232,1e-5 -32.78321,-0.0381 -21.22491,-0.0846 z m 172.00039,3e-5 c 9.35852,-0.0471 24.76652,-0.0471 34.24,-3e-5 9.47349,0.0471 1.81652,0.0856 -17.01548,0.0857 -18.832,1e-5 -26.58303,-0.0385 -17.22452,-0.0856 z M 115.05578,67.740065 c 0,-1.144 0.0581,-1.612 0.12906,-1.04 0.071,0.572 0.071,1.508 0,2.08 -0.071,0.572 -0.12906,0.104 -0.12906,-1.04 z m 143.7098,-16.799999 c 3.3e-4,-3.168 0.0482,-4.420717 0.10642,-2.783814 0.0582,1.636902 0.0579,4.228902 -6.1e-4,5.76 -0.0585,1.531097 -0.10615,0.191814 -0.10581,-2.976186 z M 140.17336,42.241469 c 0.231,-0.09244 0.507,-0.08107 0.61333,0.02526 0.10633,0.106334 -0.0827,0.181965 -0.42,0.168071 -0.37278,-0.01535 -0.44861,-0.09118 -0.19333,-0.193334 z"
         id="path8" />
      <path
         style="fill:#a3a3a3;fill-opacity:1"
         d="m 379.23254,226.86006 c -0.39803,-0.50754 -0.38672,-0.51885 0.12082,-0.12082 0.308,0.24155 0.56,0.49355 0.56,0.56 0,0.26338 -0.26278,0.0939 -0.68082,-0.43918 z m 111.68001,0 c -0.39804,-0.50754 -0.38672,-0.51885 0.12081,-0.12082 0.308,0.24155 0.56,0.49355 0.56,0.56 0,0.26338 -0.26277,0.0939 -0.68081,-0.43918 z m -110.99919,-5.64082 c 0,-0.0664 0.252,-0.31844 0.56,-0.56 0.50754,-0.39803 0.51886,-0.38672 0.12082,0.12082 -0.41804,0.53304 -0.68082,0.70256 -0.68082,0.43918 z m 111.68,0 c 0,-0.0664 0.252,-0.31844 0.56,-0.56 0.50754,-0.39803 0.51886,-0.38672 0.12082,0.12082 -0.41804,0.53304 -0.68082,0.70256 -0.68082,0.43918 z m 39.63919,-0.75918 c -0.39804,-0.50754 -0.38672,-0.51885 0.12082,-0.12082 0.308,0.24156 0.56,0.49356 0.56,0.56 0,0.26338 -0.26278,0.0939 -0.68082,-0.43918 z m 108.8,0 c -0.39804,-0.50754 -0.38672,-0.51885 0.12082,-0.12082 0.308,0.24156 0.56,0.49356 0.56,0.56 0,0.26338 -0.26278,0.0939 -0.68082,-0.43918 z m -260.14341,-20.8 -0.77578,-0.88 0.88,0.77578 c 0.484,0.42668 0.88,0.82268 0.88,0.88 0,0.25097 -0.25913,0.0467 -0.98422,-0.77578 z m 111.68001,0 -0.77579,-0.88 0.88,0.77578 c 0.484,0.42668 0.88,0.82268 0.88,0.88 0,0.25097 -0.25913,0.0467 -0.98421,-0.77578 z m -409.126197,-35.04 -0.609596,-0.72 0.72,0.6096 c 0.676622,0.57287 0.865677,0.8304 0.609596,0.8304 -0.06072,0 -0.384722,-0.324 -0.72,-0.72 z m 313.453187,-26.08 -1.10278,-1.2 1.2,1.10278 c 1.11694,1.02643 1.34713,1.29722 1.10278,1.29722 -0.0535,0 -0.59348,-0.54 -1.2,-1.2 z m 73.76864,-1.44 -2.23142,-2.32 2.32,2.23142 c 2.15482,2.07254 2.46614,2.40858 2.23142,2.40858 -0.0487,0 -1.09272,-1.044 -2.32,-2.32 z m -214.39142,-0.56 c 0.31856,-0.352 0.65119,-0.64 0.73919,-0.64 0.088,0 -0.10063,0.288 -0.41919,0.64 -0.31856,0.352 -0.65119,0.64 -0.73919,0.64 -0.088,0 0.10063,-0.288 0.41919,-0.64 z m 131.66278,-7.28 -1.10278,-1.2 1.2,1.10278 c 1.11694,1.02644 1.34713,1.29722 1.10278,1.29722 -0.0535,0 -0.59348,-0.54 -1.2,-1.2 z m -8.80291,-9.12 -0.93987,-1.04 1.04,0.93987 c 0.96943,0.87609 1.18709,1.14013 0.93987,1.14013 -0.0551,0 -0.52307,-0.468 -1.04,-1.04 z m 71.86013,-2.96 c -1.31119,-1.32 -2.31198,-2.4 -2.22398,-2.4 0.088,0 1.23279,1.08 2.54398,2.4 1.31119,1.32 2.31199,2.4 2.22399,2.4 -0.088,0 -1.2328,-1.08 -2.54399,-2.4 z m -80.65722,-6.16 -1.10278,-1.2 1.2,1.10278 c 1.11694,1.02644 1.34713,1.29722 1.10278,1.29722 -0.0535,0 -0.59348,-0.54 -1.2,-1.2 z m -70.86278,-8.08 c 4.57346,-4.575995 8.38739,-8.319995 8.47539,-8.319995 0.088,0 -3.58193,3.744 -8.15539,8.319995 -4.57346,4.576 -8.38738,8.32 -8.47538,8.32 -0.088,0 3.58192,-3.744 8.15538,-8.32 z m 22.88,-2.4 c 2.19472,-2.199995 4.0624,-3.999995 4.1504,-3.999995 0.088,0 -1.63568,1.8 -3.8304,3.999995 -2.19472,2.2 -4.06239,4 -4.15039,4 -0.088,0 1.63567,-1.8 3.83039,-4 z m 39.17987,1.36 -0.93987,-1.04 1.04,0.93987 c 0.96943,0.87609 1.18709,1.14013 0.93987,1.14013 -0.0551,0 -0.52307,-0.468 -1.04,-1.04 z m 69.62013,-4.879995 c -1.31119,-1.32 -2.31198,-2.4 -2.22398,-2.4 0.088,0 1.23279,1.08 2.54398,2.4 1.31119,1.32 2.31199,2.4 2.22399,2.4 -0.088,0 -1.2328,-1.08 -2.54399,-2.4 z m -78.41722,-4.24 -1.10278,-1.2 1.2,1.102773 c 1.11694,1.026438 1.34713,1.297227 1.10278,1.297227 -0.0535,0 -0.59348,-0.54 -1.2,-1.2 z m 206.69641,-0.96 c -0.39804,-0.507538 -0.38672,-0.518856 0.12082,-0.120818 0.53304,0.418038 0.70255,0.680818 0.43918,0.680818 -0.0665,0 -0.31845,-0.252 -0.56,-0.56 z m -215.65641,-8.32 -1.10278,-1.2 1.2,1.102773 c 1.11694,1.026438 1.34713,1.297227 1.10278,1.297227 -0.0535,0 -0.59348,-0.54 -1.2,-1.2 z m 67.68972,-6.56 -2.5525,-2.64 2.64,2.552493 c 2.45195,2.370677 2.78589,2.727507 2.5525,2.727507 -0.0481,0 -1.23613,-1.188 -2.64,-2.64 z m 124.60669,-6.24 c -0.39804,-0.507538 -0.38672,-0.518856 0.12082,-0.120817 0.53303,0.418038 0.70255,0.680817 0.43918,0.680817 -0.0665,0 -0.31845,-0.252 -0.56,-0.56 z m -144.27919,-13.68 c -1.31119,-1.319999 -2.31198,-2.399999 -2.22398,-2.399999 0.088,0 1.23279,1.08 2.54398,2.399999 1.31119,1.32 2.31199,2.4 2.22399,2.4 -0.088,0 -1.2328,-1.08 -2.54399,-2.4 z m -268.96,-6.879999 c 0.31855,-0.352 0.65119,-0.64 0.73919,-0.64 0.088,0 -0.10064,0.288 -0.41919,0.64 -0.31856,0.352 -0.65119,0.64 -0.73919,0.64 -0.088,0 0.10063,-0.288 0.41919,-0.64 z m 389.87919,-0.56 c -0.39804,-0.507538 -0.38672,-0.518857 0.12082,-0.120818 0.308,0.24155 0.56,0.49355 0.56,0.56 0,0.263371 -0.26278,0.09386 -0.68082,-0.439182 z m -434.039193,-33.36 c 0.318556,-0.352 0.651192,-0.64 0.739192,-0.64 0.088,0 -0.100636,0.288 -0.419192,0.64 -0.318556,0.352 -0.651192,0.64 -0.739192,0.64 -0.088,0 0.100636,-0.288 0.419192,-0.64 z"
         id="path7" />
      <path
         style="fill:#8c8c8c;fill-opacity:1"
         d="m 383.5076,241.50006 c 0,-0.616 0.0659,-0.868 0.14635,-0.56 0.0805,0.308 0.0805,0.812 0,1.12 -0.0805,0.308 -0.14635,0.056 -0.14635,-0.56 z m 111.68001,0 c 0,-0.616 0.0659,-0.868 0.14634,-0.56 0.0805,0.308 0.0805,0.812 0,1.12 -0.0805,0.308 -0.14634,0.056 -0.14634,-0.56 z M 366.81863,240.9934 c 0.0154,-0.37279 0.0912,-0.44861 0.19333,-0.19334 0.0924,0.231 0.0811,0.507 -0.0253,0.61334 -0.10634,0.10633 -0.18197,-0.0827 -0.16807,-0.42 z m 111.68,0 c 0.0154,-0.37279 0.0912,-0.44861 0.19333,-0.19334 0.0924,0.231 0.0811,0.507 -0.0253,0.61334 -0.10634,0.10633 -0.18197,-0.0827 -0.16807,-0.42 z M 157.3273,221.34006 c 0,-3.432 0.0471,-4.836 0.10462,-3.12 0.0575,1.716 0.0575,4.524 0,6.24 -0.0575,1.716 -0.10462,0.312 -0.10462,-3.12 z m 165.44001,0 c 0,-3.432 0.0471,-4.836 0.10461,-3.12 0.0575,1.716 0.0575,4.524 0,6.24 -0.0575,1.716 -0.10461,0.312 -0.10461,-3.12 z m 301.76,0 c 0,-3.432 0.0471,-4.836 0.10462,-3.12 0.0575,1.716 0.0575,4.524 0,6.24 -0.0575,1.716 -0.10462,0.312 -0.10462,-3.12 z m -184.67805,-7.68 c 0,-0.968 0.06,-1.364 0.13331,-0.88 0.0733,0.484 0.0733,1.276 0,1.76 -0.0733,0.484 -0.13331,0.088 -0.13331,-0.88 z m -55.6952,-3.04 c 0.004,-0.704 0.0691,-0.95432 0.14563,-0.55627 0.0765,0.39806 0.0736,0.97406 -0.006,1.28 -0.0801,0.30595 -0.14272,-0.0197 -0.13917,-0.72373 z m 111.68,0 c 0.004,-0.704 0.0691,-0.95432 0.14563,-0.55627 0.0765,0.39806 0.0736,0.97406 -0.006,1.28 -0.0801,0.30595 -0.14272,-0.0197 -0.13917,-0.72373 z m -334.34349,-9.28 c 2.3e-4,-4.048 0.0461,-5.65987 0.10191,-3.58194 0.0558,2.07793 0.0556,5.38993 -4.1e-4,7.36 -0.056,1.97007 -0.10172,0.26994 -0.1015,-3.77806 z m 64,0 c 2.3e-4,-4.048 0.0461,-5.65987 0.10191,-3.58194 0.0558,2.07793 0.0556,5.38993 -4.1e-4,7.36 -0.056,1.97007 -0.10172,0.26994 -0.1015,-3.77806 z m 101.44,0 c 2.3e-4,-4.048 0.0461,-5.65987 0.10191,-3.58194 0.0558,2.07793 0.0556,5.38993 -4e-4,7.36 -0.0561,1.97007 -0.10173,0.26994 -0.10151,-3.77806 z m 301.76001,0 c 2.2e-4,-4.048 0.0461,-5.65987 0.10191,-3.58194 0.0558,2.07793 0.0556,5.38993 -4.1e-4,7.36 -0.0561,1.97007 -0.10173,0.26994 -0.1015,-3.77806 z M 69.85862,152.0334 c 0.01535,-0.37278 0.09118,-0.44861 0.193333,-0.19334 0.09244,0.231 0.08107,0.507 -0.02526,0.61334 -0.106333,0.10633 -0.181965,-0.0827 -0.16807,-0.42 z M 721.19,92.700065 c 0,-32.472 0.0375,-45.755999 0.0833,-29.52 0.0458,16.236 0.0458,42.803995 0,59.039995 -0.0459,16.236 -0.0833,2.952 -0.0833,-29.519995 z M 236.49336,144.32147 c 0.231,-0.0924 0.507,-0.0811 0.61333,0.0253 0.10634,0.10633 -0.0827,0.18197 -0.42,0.16807 -0.37278,-0.0154 -0.4486,-0.0912 -0.19333,-0.19333 z m 24.40526,-2.20807 c 0.0154,-0.37278 0.0912,-0.44861 0.19334,-0.19334 0.0924,0.231 0.0811,0.507 -0.0253,0.61334 -0.10633,0.10633 -0.18196,-0.0827 -0.16807,-0.42 z M 678.94926,93.340065 c 0,-26.488 0.0378,-37.323999 0.0841,-24.08 0.0462,13.244 0.0462,34.915995 0,48.159995 -0.0462,13.244 -0.0841,2.408 -0.0841,-24.079995 z m -562.9043,42.239995 c 0,-3.08 0.048,-4.34 0.10666,-2.8 0.0587,1.54 0.0587,4.06 0,5.6 -0.0587,1.54 -0.10666,0.28 -0.10666,-2.8 z m 25.0684,-93.331924 c 0.22,-0.08877 0.58,-0.08877 0.8,0 0.22,0.08877 0.04,0.161403 -0.4,0.161403 -0.44,0 -0.62,-0.07263 -0.4,-0.161403 z M 69.85862,33.633399 c 0.01535,-0.372782 0.09118,-0.448608 0.193333,-0.193333 0.09244,0.231 0.08107,0.507 -0.02526,0.613333 -0.106333,0.106334 -0.181965,-0.08267 -0.16807,-0.42 z"
         id="path6" />
      <path
         style="fill:#767676;fill-opacity:1"
         d="m 398.13614,140.78006 -1.10278,-1.2 1.2,1.10278 c 1.11694,1.02643 1.34713,1.29722 1.10278,1.29722 -0.0535,0 -0.59348,-0.54 -1.2,-1.2 z m 180.17723,0.11919 c 0,-0.0665 0.252,-0.31845 0.56,-0.56 0.50753,-0.39804 0.51885,-0.38672 0.12081,0.12081 -0.41803,0.53304 -0.68081,0.70256 -0.68081,0.43919 z m -113.60001,-8.67919 c -1.31119,-1.32 -2.31198,-2.4 -2.22398,-2.4 0.088,0 1.23279,1.08 2.54398,2.4 1.31119,1.32 2.31199,2.4 2.22399,2.4 -0.088,0 -1.2328,-1.08 -2.54399,-2.4 z m -75.53722,-0.72 -1.10278,-1.2 1.2,1.10278 c 1.11694,1.02643 1.34713,1.29722 1.10278,1.29722 -0.0535,0 -0.59348,-0.54 -1.2,-1.2 z m -91.34278,-7.76 c 1.57666,-1.584 2.93866,-2.88 3.02666,-2.88 0.088,0 -1.13,1.296 -2.70666,2.88 -1.57666,1.584 -2.93866,2.88 -3.02666,2.88 -0.088,0 1.13,-1.296 2.70666,-2.88 z m 82.70278,-1.2 -1.10278,-1.2 1.2,1.10278 c 1.11694,1.02644 1.34713,1.29722 1.10278,1.29722 -0.0535,0 -0.59348,-0.54 -1.2,-1.2 z m 219.53723,-1.16081 c 0,-0.0665 0.252,-0.31845 0.56,-0.56 0.50753,-0.39804 0.51885,-0.38672 0.12081,0.12081 -0.41803,0.53304 -0.68081,0.70256 -0.68081,0.43919 z m -155.04751,-9.23919 -2.5525,-2.64 2.64,2.5525 c 2.45195,2.37067 2.78589,2.7275 2.5525,2.7275 -0.0481,0 -1.23613,-1.188 -2.64,-2.64 z m -73.44972,1.12 -1.10278,-1.2 1.2,1.10278 c 1.11694,1.02644 1.34713,1.29722 1.10278,1.29722 -0.0535,0 -0.59348,-0.54 -1.2,-1.2 z m 204.45641,-5.44 c -0.39804,-0.50753 -0.38672,-0.51885 0.12082,-0.12081 0.53304,0.41804 0.70255,0.68081 0.43918,0.68081 -0.0664,0 -0.31845,-0.252 -0.56,-0.56 z m -213.09641,-3.52 -1.10278,-1.2 1.2,1.10278 c 1.11694,1.02644 1.34713,1.29722 1.10278,1.29722 -0.0535,0 -0.59348,-0.54 -1.2,-1.2 z m 206.37641,-2.56 c -0.39804,-0.50753 -0.38672,-0.51885 0.12082,-0.12081 0.53304,0.41804 0.70255,0.68081 0.43918,0.68081 -0.0665,0 -0.31845,-0.252 -0.56,-0.56 z M 329.51336,92.380065 c 2.28292,-2.288 4.22277,-4.16 4.31077,-4.16 0.088,0 -1.70785,1.872 -3.99077,4.16 -2.28292,2.288 -4.22276,4.16 -4.31076,4.16 -0.088,0 1.70784,-1.872 3.99076,-4.16 z m 24.46278,2.64 -1.10278,-1.2 1.2,1.102773 c 1.11694,1.026438 1.34713,1.297227 1.10278,1.297227 -0.0535,0 -0.59348,-0.54 -1.2,-1.2 z m 71.20972,-3.04 -2.5525,-2.64 2.64,2.552493 c 2.45195,2.370677 2.78589,2.727507 2.5525,2.727507 -0.0481,0 -1.23613,-1.188 -2.64,-2.64 z m -109.7525,-6 c 4.57346,-4.576 8.38739,-8.32 8.47539,-8.32 0.088,0 -3.58193,3.744 -8.15539,8.32 -4.57346,4.576 -8.38738,8.32 -8.47538,8.32 -0.088,0 3.58192,-3.744 8.15538,-8.32 z m 237.23919,0.72 c -0.39804,-0.507538 -0.38672,-0.518856 0.12082,-0.120818 0.53304,0.418039 0.70255,0.680818 0.43918,0.680818 -0.0664,0 -0.31845,-0.252 -0.56,-0.56 z m -207.49932,-0.8 -0.93987,-1.04 1.04,0.939869 c 0.96943,0.87609 1.18709,1.140131 0.93987,1.140131 -0.0551,0 -0.52307,-0.468 -1.04,-1.04 z m 200.77932,-5.28 c -0.39804,-0.507538 -0.38672,-0.518856 0.12082,-0.120818 0.53304,0.418039 0.70255,0.680818 0.43918,0.680818 -0.0665,0 -0.31845,-0.252 -0.56,-0.56 z m -140.43919,-8.56 c -1.31119,-1.32 -2.31198,-2.4 -2.22398,-2.4 0.088,0 1.23279,1.08 2.54398,2.4 1.31119,1.32 2.31199,2.4 2.22399,2.4 -0.088,0 -1.2328,-1.08 -2.54399,-2.4 z m 123.79919,-6.48 c -0.39804,-0.507537 -0.38672,-0.518856 0.12082,-0.120817 0.53303,0.418038 0.70255,0.680817 0.43918,0.680817 -0.0665,0 -0.31845,-0.252 -0.56,-0.56 z m -6.72,-6.08 c -0.39804,-0.507537 -0.38672,-0.518856 0.12082,-0.120817 0.53303,0.418038 0.70255,0.680817 0.43918,0.680817 -0.0665,0 -0.31845,-0.252 -0.56,-0.56 z M 385.67336,51.900066 c -1.31119,-1.32 -2.31198,-2.4 -2.22398,-2.4 0.088,0 1.23279,1.08 2.54398,2.4 1.31119,1.32 2.31199,2.4 2.22399,2.4 -0.088,0 -1.2328,-1.08 -2.54399,-2.4 z"
         id="path5" />
      <path
         style="fill:#606060;fill-opacity:1"
         d="m 569.67337,244.25924 c 0,-0.0665 0.252,-0.31845 0.56,-0.56 0.50753,-0.39803 0.51885,-0.38672 0.12081,0.12082 -0.41803,0.53304 -0.68081,0.70256 -0.68081,0.43918 z m 108.8,0 c 0,-0.0665 0.252,-0.31845 0.56,-0.56 0.50754,-0.39803 0.51885,-0.38672 0.12082,0.12082 -0.41804,0.53304 -0.68082,0.70256 -0.68082,0.43918 z m 40,-73.59999 c 0,-0.0664 0.252,-0.31845 0.56,-0.56 0.50754,-0.39804 0.51886,-0.38672 0.12082,0.12081 -0.41804,0.53304 -0.68082,0.70256 -0.68082,0.43919 z m -600.50525,-26.5685 c -1.61896,-0.71273 -1.78334,-1.59027 -1.67349,-8.934 0.0954,-6.37694 0.1234,-6.62499 0.82757,-7.32851 l 0.72884,-0.72818 43.11116,-0.16 43.11116,-0.16 -2.08,-0.99848 c -1.144,-0.54916 -17.488,-8.22655 -36.32,-17.06085 -18.832,-8.834307 -35.536,-16.835009 -37.12,-17.779341 -6.89273,-4.109231 -10.70076,-8.666038 -12.39481,-14.832007 -0.55445,-2.018071 -0.67753,-3.407126 -0.69906,-7.889317 -0.0233,-4.853604 0.0547,-5.698704 0.72364,-7.84 3.28906,-10.5282 11.6374,-16.730368 24.08975,-17.896802 4.95765,-0.464392 114.19599,-0.474188 115.86592,-0.01039 0.652,0.18108 1.48,0.703697 1.84,1.16137 0.61071,0.776381 0.65456,1.268407 0.65456,7.343929 v 6.511796 l -0.9337,1.045049 -0.93369,1.045048 -41.54631,0.16 -41.5463,0.16 2.4,1.154319 c 1.32,0.634875 16.872,7.958121 34.56,16.273879 36.71733,17.262126 38.2113,17.998451 41.56851,20.487667 4.17655,3.09672 7.40897,7.3519 8.65886,11.39858 0.8735,2.82807 1.41097,8.10461 1.18621,11.64555 -0.63706,10.03669 -6.35226,17.7383 -15.89358,21.41767 -5.7835,2.23026 -0.64566,2.06507 -67.2,2.16062 -49.93212,0.0717 -60.16532,0.0134 -60.98524,-0.3476 z m 144.34524,0.0669 c -0.92216,-0.52292 -1.10959,-0.90652 -1.1151,-2.2821 -0.005,-1.2013 0.90568,-2.13937 48.0751,-49.531898 40.64206,-40.834284 48.35227,-48.441702 49.84,-49.175512 1.74894,-0.862647 1.80325,-0.868104 8.64,-0.868104 9.00355,0 8.38762,-0.275631 15.36,6.873559 2.904,2.977638 24.144,24.571514 47.2,47.986392 28.28987,28.730213 42.06247,42.933403 42.35816,43.682453 0.24472,0.6199 0.34565,1.47856 0.22862,1.94486 -0.45186,1.80034 0.49118,1.75273 -34.72075,1.75273 -22.6863,0 -32.81978,-0.10709 -34.01028,-0.35942 -3.59594,-0.76219 -0.57483,2.15731 -38.95619,-37.64587 -13.27725,-13.769086 -24.24084,-25.034705 -24.36354,-25.034705 -0.25893,0 -45.52303,44.749695 -45.68269,45.163525 -0.0595,0.15424 15.22041,0.27856 34.56,0.28119 27.07303,0.004 34.84191,0.0923 35.46667,0.40445 1.62545,0.81219 1.91896,2.08458 1.91951,8.32111 5.7e-4,6.602 -0.2557,7.64831 -2.05771,8.40124 -0.96867,0.40474 -7.99146,0.46716 -51.61152,0.45875 -37.03547,-0.007 -50.66083,-0.10644 -51.13028,-0.37265 z m 221.02803,-0.0997 c -2.11343,-0.91824 -1.98808,2.2848 -1.98753,-50.787607 4.7e-4,-45.14302 0.0348,-48.158918 0.56,-49.210277 0.90808,-1.817766 1.8963,-1.984477 10.9595,-1.848853 8.77152,0.13126 9.8006,0.335323 13.17722,2.612998 0.93653,0.631729 17.54056,15.478231 36.89785,32.992226 19.35728,17.513995 35.26928,31.843493 35.36,31.843333 0.0907,-1.6e-4 17.38922,-14.580161 38.44113,-32.399999 21.05191,-17.819838 38.83591,-32.710784 39.52,-33.090992 2.88359,-1.60265 4.57613,-1.855986 12.44381,-1.862562 7.96392,-0.0067 9.05602,0.176572 9.71849,1.630534 0.49961,1.096521 0.51793,97.669899 0.0187,98.765499 -0.79374,1.74205 0.32749,1.67012 -27.65723,1.77444 -18.0788,0.0674 -26.28341,-0.009 -27.1213,-0.25323 -2.41575,-0.70355 -2.29949,0.32036 -2.4787,-21.83005 l -0.16,-19.77551 -21.92,19.66743 c -12.056,10.81708 -22.57878,20.02883 -23.38396,20.47055 -2.5813,1.4161 -4.75495,1.78418 -10.53604,1.78418 -5.72719,0 -7.8044,-0.34236 -10.75927,-1.77335 -0.90171,-0.43668 -12.7078,-9.64583 -26.24,-20.46809 l -24.60074,-19.67424 -0.16,19.75784 c -0.12652,15.62359 -0.24908,19.91417 -0.58575,20.50493 -0.84162,1.47681 -1.97766,1.65389 -10.52397,1.64039 -6.14598,-0.01 -8.16697,-0.11537 -8.98225,-0.46959 z m 231.59475,-123.277884 -1.10277,-1.2 1.2,1.102774 c 1.11693,1.026437 1.34713,1.297226 1.10277,1.297226 -0.0535,0 -0.59347,-0.54 -1.2,-1.2 z"
         id="path4" />
      <path
         style="fill:#494949;fill-opacity:1"
         d="m 547.21337,250.24147 c 0.231,-0.0924 0.507,-0.0811 0.61333,0.0253 0.10633,0.10633 -0.0827,0.18196 -0.42,0.16807 -0.37278,-0.0154 -0.44861,-0.0912 -0.19333,-0.19333 z m 6.72,0 c 0.231,-0.0924 0.507,-0.0811 0.61333,0.0253 0.10633,0.10633 -0.0827,0.18196 -0.42,0.16807 -0.37278,-0.0154 -0.44861,-0.0912 -0.19333,-0.19333 z m 102.08,0 c 0.231,-0.0924 0.507,-0.0811 0.61333,0.0253 0.10633,0.10633 -0.0827,0.18196 -0.42,0.16807 -0.37278,-0.0154 -0.44861,-0.0912 -0.19333,-0.19333 z m 6.72,0 c 0.231,-0.0924 0.507,-0.0811 0.61333,0.0253 0.10633,0.10633 -0.0827,0.18196 -0.42,0.16807 -0.37278,-0.0154 -0.44861,-0.0912 -0.19333,-0.19333 z m -500.6028,-8.26141 c 2.3e-4,-4.048 0.0461,-5.65987 0.10191,-3.58194 0.0558,2.07793 0.0556,5.38993 -4.1e-4,7.36 -0.056,1.97007 -0.10172,0.26994 -0.1015,-3.77806 z m 23.36977,-6.72 c 8e-5,-7.744 0.0418,-10.86621 0.0928,-6.93825 0.0509,3.92797 0.0509,10.26397 -1.4e-4,14.08 -0.051,3.81604 -0.0927,0.60225 -0.0926,-7.14175 z m 56.00377,-6.4 c 4e-5,-11.264 0.0401,-15.82557 0.0891,-10.13682 0.049,5.68875 0.0489,14.90475 -6e-5,20.48 -0.049,5.57525 -0.0891,0.92082 -0.0891,-10.34318 z m 86.06646,13.12 c 2.3e-4,-4.048 0.0461,-5.65987 0.10191,-3.58194 0.0558,2.07793 0.0557,5.38993 -4e-4,7.36 -0.0561,1.97007 -0.10173,0.26994 -0.10151,-3.77806 z m 23.36457,-2.24 c -1.4e-4,-5.28 0.0437,-7.4849 0.0974,-4.89978 0.0537,2.58513 0.0539,6.90513 2.6e-4,9.6 -0.0536,2.69488 -0.0975,0.57978 -0.0977,-4.70022 z m 56.95829,0.96 c -1.7e-4,-4.752 0.0444,-6.74061 0.099,-4.41913 0.0546,2.32148 0.0547,6.20948 3.1e-4,8.64 -0.0544,2.43052 -0.0991,0.53113 -0.0993,-4.22087 z m 54.72171,-0.96 c -1.4e-4,-5.28 0.0437,-7.4849 0.0974,-4.89978 0.0537,2.58513 0.0538,6.90513 2.6e-4,9.6 -0.0536,2.69488 -0.0975,0.57978 -0.0977,-4.70022 z m 56.97125,-18.08 c 0,-15.224 0.0391,-21.452 0.0869,-13.84 0.0478,7.612 0.0478,20.068 0,27.68 -0.0478,7.612 -0.0869,1.384 -0.0869,-13.84 z m 109.74419,20.32 c 2.2e-4,-4.048 0.0461,-5.65987 0.10191,-3.58194 0.0558,2.07793 0.0556,5.38993 -4.1e-4,7.36 -0.0561,1.97007 -0.10173,0.26994 -0.1015,-3.77806 z m -245.84669,1.44 c 0,-0.44 0.0726,-0.62 0.1614,-0.4 0.0888,0.22 0.0888,0.58 0,0.8 -0.0888,0.22 -0.1614,0.04 -0.1614,-0.4 z m 111.68,0 c 0,-0.44 0.0726,-0.62 0.1614,-0.4 0.0888,0.22 0.0888,0.58 0,0.8 -0.0888,0.22 -0.1614,0.04 -0.1614,-0.4 z m -363.76837,-12.32 c 6.4e-4,-2.112 0.0524,-2.93435 0.11509,-1.82746 0.0627,1.1069 0.0621,2.8349 -0.001,3.84 -0.0633,1.00511 -0.11457,0.0995 -0.11394,-2.01254 z m 165.44001,0 c 6.3e-4,-2.112 0.0524,-2.93435 0.11508,-1.82746 0.0627,1.1069 0.0622,2.8349 -10e-4,3.84 -0.0633,1.00511 -0.11457,0.0995 -0.11393,-2.01254 z m 301.76,0 c 6.3e-4,-2.112 0.0524,-2.93435 0.11509,-1.82746 0.0627,1.1069 0.0622,2.8349 -10e-4,3.84 -0.0633,1.00511 -0.11457,0.0995 -0.11394,-2.01254 z m -23.39064,0.64 c 0.002,-0.88 0.0646,-1.20202 0.1381,-0.7156 0.0736,0.48642 0.0716,1.20642 -0.004,1.6 -0.076,0.39358 -0.13613,-0.004 -0.13373,-0.8844 z m 108.8,0 c 0.002,-0.88 0.0645,-1.20202 0.1381,-0.7156 0.0736,0.48642 0.0716,1.20642 -0.004,1.6 -0.076,0.39358 -0.13614,-0.004 -0.13374,-0.8844 z m -262.23153,0.26141 c 0.231,-0.0924 0.507,-0.0811 0.61334,0.0253 0.10633,0.10633 -0.0827,0.18196 -0.42,0.16807 -0.37279,-0.0154 -0.44861,-0.0912 -0.19334,-0.19333 z M 202.46048,208.22006 c 0,-7.832 0.0417,-11.036 0.0926,-7.12 0.0509,3.916 0.0509,10.324 0,14.24 -0.0509,3.916 -0.0926,0.712 -0.0926,-7.12 z m 205.42571,5.44 c 0,-3.256 0.0475,-4.588 0.10559,-2.96 0.0581,1.628 0.0581,4.292 0,5.92 -0.0581,1.628 -0.10559,0.296 -0.10559,-2.96 z m -56.96189,-0.48 c -3.7e-4,-2.992 0.0477,-4.25907 0.10688,-2.81571 0.0592,1.44336 0.0595,3.89136 6.7e-4,5.44 -0.0588,1.54864 -0.10718,0.36771 -0.10755,-2.62429 z m 111.68,0 c -3.7e-4,-2.992 0.0477,-4.25907 0.10689,-2.81571 0.0591,1.44336 0.0595,3.89136 6.7e-4,5.44 -0.0588,1.54864 -0.10719,0.36771 -0.10756,-2.62429 z m -331.21124,-1.28 c 7.2e-4,-1.936 0.0534,-2.68674 0.11712,-1.66831 0.0637,1.01842 0.0631,2.60242 -0.001,3.52 -0.0644,0.91757 -0.11653,0.0843 -0.11581,-1.85169 z m 165.44,0 c 7.2e-4,-1.936 0.0534,-2.68674 0.11713,-1.66831 0.0637,1.01842 0.0631,2.60242 -0.001,3.52 -0.0644,0.91757 -0.11653,0.0843 -0.11581,-1.85169 z m 301.76001,0 c 7.2e-4,-1.936 0.0534,-2.68674 0.11712,-1.66831 0.0637,1.01842 0.0631,2.60242 -10e-4,3.52 -0.0644,0.91757 -0.11653,0.0843 -0.11581,-1.85169 z M 364.47336,194.24813 c 0.22,-0.0888 0.58,-0.0888 0.8,0 0.22,0.0888 0.04,0.16141 -0.4,0.16141 -0.44,0 -0.62,-0.0726 -0.4,-0.16141 z m 56.34,-0.007 c 0.231,-0.0924 0.507,-0.0811 0.61334,0.0253 0.10633,0.10633 -0.0827,0.18196 -0.42,0.16807 -0.37279,-0.0154 -0.44861,-0.0912 -0.19334,-0.19333 z m 55.34,0.007 c 0.22,-0.0888 0.58,-0.0888 0.8,0 0.22,0.0888 0.04,0.16141 -0.4,0.16141 -0.44,0 -0.62,-0.0726 -0.4,-0.16141 z m 70.42001,-1.28666 c 0.231,-0.0924 0.507,-0.0811 0.61333,0.0253 0.10633,0.10633 -0.0827,0.18196 -0.42,0.16807 -0.37278,-0.0153 -0.44861,-0.0912 -0.19333,-0.19333 z m 7.04,0 c 0.231,-0.0924 0.507,-0.0811 0.61333,0.0253 0.10633,0.10633 -0.0827,0.18196 -0.42,0.16807 -0.37278,-0.0153 -0.44861,-0.0912 -0.19333,-0.19333 z m 101.76,0 c 0.231,-0.0924 0.507,-0.0811 0.61333,0.0253 0.10633,0.10633 -0.0827,0.18196 -0.42,0.16807 -0.37278,-0.0153 -0.44861,-0.0912 -0.19333,-0.19333 z m 7.04,0 c 0.231,-0.0924 0.507,-0.0811 0.61333,0.0253 0.10633,0.10633 -0.0827,0.18196 -0.42,0.16807 -0.37278,-0.0153 -0.44861,-0.0912 -0.19333,-0.19333 z M 246.87336,177.26006 c 83.556,-0.0444 220.284,-0.0444 303.84001,0 83.556,0.0444 15.192,0.0807 -151.92001,0.0807 -167.112,0 -235.476,-0.0363 -151.92,-0.0807 z M 69.989957,92.860065 c 5e-6,-32.208 0.03753,-45.336574 0.08338,-29.174611 0.04586,16.161963 0.04585,42.513966 -9e-6,58.559996 -0.04586,16.04604 -0.08338,2.82261 -0.08337,-29.385385 z M 247.37977,14.700067 c 83.48253,-0.04437 219.99454,-0.04437 303.36001,0 83.36547,0.04437 15.06159,0.08067 -151.78642,0.08067 -166.848,-1e-6 -235.05611,-0.0363 -151.57359,-0.08067 z"
         id="path3" />
      <path
         style="fill:#333333;fill-opacity:1"
         d="m 545.69197,250.10111 c -6.62464,-0.76755 -12.88227,-3.75741 -16.11112,-7.69779 -2.14282,-2.61504 -3.74748,-6.92566 -3.74748,-10.06693 v -1.07633 h 8.28201 8.28201 l 0.34632,1.37536 c 0.85591,3.39912 3.2215,5.05392 7.54949,5.28108 3.50001,0.1837 5.81994,-0.47056 7.18619,-2.02664 1.11254,-1.26711 1.27641,-2.51542 0.52176,-3.97474 -0.55115,-1.06581 -2.21462,-1.75588 -9.60778,-3.98566 -11.00499,-3.3191 -13.73732,-4.53161 -16.6516,-7.3894 -2.98078,-2.92299 -4.3084,-6.22633 -4.3084,-10.72 0,-8.2492 5.21568,-14.18486 14.05497,-15.99512 8.0741,-1.65355 17.08573,-0.94446 22.44397,1.76601 4.94978,2.50387 8.13322,7.246 8.827,13.14892 l 0.20217,1.72019 h -8.16406 -8.16405 l -0.18759,-0.88 c -0.54779,-2.56987 -2.56304,-3.9681 -6.0232,-4.17903 -2.48302,-0.15136 -4.22938,0.32042 -5.46921,1.4775 -1.58229,1.47668 -0.97866,3.71321 1.22868,4.55244 0.44173,0.16794 3.49598,1.03465 6.78723,1.92601 8.24569,2.23317 10.69931,3.05502 13.64449,4.57026 3.29354,1.69447 5.80587,4.15183 7.24459,7.08609 1.01357,2.06718 1.1035,2.50073 1.20922,5.82996 0.13654,4.29935 -0.49976,6.86455 -2.44824,9.87006 -4.77407,7.36395 -14.65698,10.80946 -26.92737,9.38776 z m 108.80001,0 c -6.62465,-0.76755 -12.88228,-3.75741 -16.11112,-7.69779 -2.14283,-2.61504 -3.74749,-6.92566 -3.74749,-10.06693 v -1.07633 h 8.28201 8.28201 l 0.34632,1.37536 c 0.85591,3.39912 3.2215,5.05392 7.54949,5.28108 3.50002,0.1837 5.81994,-0.47056 7.1862,-2.02664 1.11253,-1.26711 1.2764,-2.51542 0.52176,-3.97474 -0.55116,-1.06581 -2.21462,-1.75588 -9.60779,-3.98566 -11.00499,-3.3191 -13.73731,-4.53161 -16.6516,-7.3894 -2.98078,-2.92299 -4.3084,-6.22633 -4.3084,-10.72 0,-8.2492 5.21568,-14.18486 14.05497,-15.99512 8.0741,-1.65355 17.08573,-0.94446 22.44397,1.76601 4.94979,2.50387 8.13323,7.246 8.827,13.14892 l 0.20217,1.72019 h -8.16405 -8.16406 l -0.18758,-0.88 c -0.5478,-2.56987 -2.56304,-3.9681 -6.0232,-4.17903 -2.48303,-0.15136 -4.22939,0.32042 -5.46922,1.4775 -1.58228,1.47668 -0.97865,3.71321 1.22869,4.55244 0.44172,0.16794 3.49597,1.03465 6.78722,1.92601 8.24569,2.23317 10.69931,3.05502 13.64449,4.57026 3.29354,1.69447 5.80587,4.15183 7.24459,7.08609 1.01358,2.06718 1.1035,2.50073 1.20923,5.82996 0.13653,4.29935 -0.49976,6.86455 -2.44824,9.87006 -4.77408,7.36395 -14.65699,10.80946 -26.92737,9.38776 z M 114.95336,221.66006 v -27.52 h 23.2 23.2 v 7.2 7.2 h -15.04 -15.04 v 3.36 3.36 h 12.96 12.96 v 6.08 6.08 h -12.96 -12.96 v 3.68 3.68 h 15.36 15.36 v 7.2 7.2 h -23.52 -23.52 z m 54.08,-0.005 v -27.52531 l 8.34275,0.0853 8.34275,0.0853 8.14652,13.92 c 4.48059,7.656 8.28635,13.968 8.45725,14.02667 0.19789,0.0679 0.31073,-5.0163 0.31073,-14 v -14.10667 h 8.16 8.16 v 27.52 27.52 l -8.4,-0.009 -8.4,-0.009 -8.13414,-13.91109 c -4.47378,-7.65111 -8.25378,-13.9111 -8.4,-13.9111 -0.14623,0 -0.26586,6.264 -0.26586,13.92 v 13.92 h -8.16 -8.16 z m 72.64,7.20531 v -20.32 h -8 -8 v -7.2 -7.2 h 24 24 v 7.2 7.2 h -7.84 -7.84 v 20.32 20.32 h -8.16 -8.16 z m 38.72,-7.2 v -27.52 h 23.2 23.2 v 7.2 7.2 h -15.04 -15.04 v 3.36 3.36 h 12.96 12.96 v 6.08 6.08 h -12.96 -12.96 v 3.68 3.68 h 15.36 15.36 v 7.2 7.2 h -23.52 -23.52 z m 54.08,0 v -27.52 l 14.32,0.008 c 15.17987,0.009 19.25035,0.23362 23.03793,1.27273 6.57306,1.80329 10.77452,5.83126 11.94041,11.44736 0.21887,1.05425 0.316,3.15079 0.22936,4.95016 -0.134,2.78275 -0.27656,3.37682 -1.31411,5.47617 -1.30217,2.63474 -3.03576,4.42542 -5.78821,5.97881 l -1.78681,1.00842 1.57413,0.78442 c 1.80641,0.90017 3.83169,2.96212 4.82838,4.91579 1.03962,2.03781 1.56383,5.04464 1.91536,10.98636 0.24438,4.13053 0.46457,5.718 0.94319,6.8 l 0.62439,1.41152 h -8.5864 -8.58639 l -0.19243,-1.04 c -0.10583,-0.572 -0.33582,-3.056 -0.51109,-5.52 -0.29796,-4.18886 -0.89294,-7.46444 -1.59368,-8.77378 -0.57263,-1.06998 -2.85451,-2.86523 -4.07138,-3.20314 -0.67246,-0.18673 -3.34665,-0.34031 -5.94265,-0.34129 l -4.72,-0.002 v 9.44 9.44 h -8.16 -8.16 z m 30.59774,-4.01977 c 1.44808,-1.08235 2.12273,-2.23992 2.28407,-3.91908 0.20648,-2.14884 -0.37403,-3.72521 -1.762,-4.78468 l -1.14822,-0.87647 -6.8258,-0.10276 -6.82579,-0.10277 v 5.32073 5.32073 l 6.69751,-0.098 c 6.18018,-0.0904 6.7657,-0.14892 7.58023,-0.75773 z m 26.36226,3.9939 v -27.54587 l 15.92,0.1384 c 17.71447,0.15401 18.45927,0.23007 22.70395,2.31874 4.05905,1.99732 7.16491,5.83232 8.93665,11.0346 0.47575,1.39692 0.59763,2.68422 0.59082,6.24 -0.008,4.11527 -0.0796,4.65918 -0.88101,6.68078 -2.23313,5.63329 -6.29227,9.19309 -12.3363,10.81872 -2.06996,0.55674 -3.7189,0.68489 -10.53411,0.81868 l -8.08,0.15862 v 8.4416 8.4416 h -8.16 -8.16 z m 27.8542,-2.53278 c 1.28665,-0.35745 2.98107,-1.96243 3.48618,-3.30218 0.60249,-1.59807 0.41959,-4.16703 -0.38038,-5.34242 -1.56476,-2.29912 -1.86311,-2.38589 -8.58238,-2.49614 l -6.05762,-0.0994 v 5.7794 5.77939 l 5.2,-0.002 c 2.86,-9.8e-4 5.71039,-0.14358 6.3342,-0.31687 z m 26.8658,2.55865 v -27.52 l 14.32,0.008 c 15.17987,0.009 19.25035,0.23362 23.03793,1.27273 6.57306,1.80329 10.77452,5.83126 11.94041,11.44736 0.21887,1.05425 0.31601,3.15079 0.22936,4.95016 -0.134,2.78275 -0.27656,3.37682 -1.31411,5.47617 -1.30216,2.63474 -3.03575,4.42542 -5.78821,5.97881 l -1.78681,1.00842 1.57414,0.78442 c 1.80641,0.90017 3.83169,2.96212 4.82837,4.91579 1.03962,2.03781 1.56383,5.04464 1.91537,10.98636 0.24438,4.13053 0.46457,5.718 0.94318,6.8 l 0.62439,1.41152 h -8.5864 -8.58639 l -0.19242,-1.04 c -0.10584,-0.572 -0.33583,-3.056 -0.5111,-5.52 -0.29796,-4.18886 -0.89294,-7.46444 -1.59367,-8.77378 -0.57264,-1.06998 -2.85452,-2.86523 -4.07139,-3.20314 -0.67245,-0.18673 -3.34665,-0.34031 -5.94265,-0.34129 l -4.72,-0.002 v 9.44 9.44 h -8.16 -8.16 z m 30.59774,-4.01977 c 1.44809,-1.08235 2.12273,-2.23992 2.28408,-3.91908 0.20647,-2.14884 -0.37404,-3.72521 -1.76201,-4.78468 l -1.14822,-0.87647 -6.82579,-0.10276 -6.8258,-0.10277 v 5.32073 5.32073 l 6.69752,-0.098 c 6.18017,-0.0904 6.76569,-0.14892 7.58022,-0.75773 z m 26.36226,4.01977 v -27.52 h 8.16001 8.16 v 27.52 27.52 h -8.16 -8.16001 z m 79.04001,0 v -27.52 h 23.2 23.2 v 7.2 7.2 h -15.04 -15.04 v 3.36 3.36 h 12.96 12.96 v 6.08 6.08 h -12.96 -12.96 v 3.68 3.68 h 15.36 15.36 v 7.2 7.2 h -23.52 -23.52 z M 90.607723,176.5369 C 80.656726,174.08848 72.756506,165.88942 70.615607,155.78855 69.92937,152.55085 69.943179,33.104551 70.630165,29.861996 72.778945,19.719822 80.426649,11.780301 90.633357,9.0955338 l 2.72,-0.7154674 H 398.95336 704.55337 l 2.69193,0.7177254 c 7.89715,2.1055482 14.06546,7.1238522 17.6044,14.3222742 3.00526,6.112894 2.72254,-0.652399 2.83498,67.839999 0.0702,42.732165 -0.004,61.205405 -0.25235,62.951975 -0.91374,6.42358 -4.24996,12.41173 -9.35416,16.78974 -2.46585,2.11502 -7.55112,4.6923 -10.93599,5.54251 -2.51711,0.63224 -4.23186,0.63564 -308.32001,0.6126 -297.29206,-0.0225 -305.856212,-0.0397 -308.214447,-0.61999 z m 615.389797,-6.4195 c 5.79354,-1.60547 10.49151,-5.54047 13.15353,-11.01734 2.36391,-4.86353 2.22179,-0.36817 2.12722,-67.283028 l -0.0849,-60.076966 -0.90356,-2.556929 c -2.40297,-6.799975 -7.53315,-11.7013 -14.45644,-13.811528 -1.85335,-0.564904 -12.45016,-0.588557 -305.28001,-0.681397 -223.40301,-0.07083 -304.030559,-0.0013 -305.904121,0.263721 -6.891879,0.974952 -12.804644,5.166694 -15.838695,11.228541 -2.44224,4.879447 -2.285843,0.04094 -2.186274,67.637591 l 0.08909,60.479995 0.711528,2.08 c 1.778218,5.19824 5.78703,9.87776 10.397993,12.13765 1.457764,0.71447 3.442479,1.50631 4.410479,1.75964 1.525283,0.39917 42.40968,0.4634 306.56643,0.48165 l 304.80644,0.0211 z"
         id="path2" />
    </g>
  </g>
</svg>
