<svg xmlns="http://www.w3.org/2000/svg" xmlns:xlink="http://www.w3.org/1999/xlink" x="0px" y="0px" viewBox="0 0 500 500" xml:space="preserve"><path d="M455.6,463c-49.9-18.4-133.8-69-164.6-130.4c33.5-12.6,63.4-48.6,48.8-83.2c-13.6-33.8-62.4-40.4-82.9-9.3 c-11,14.4-15.5,40.4-13.3,61c-77-10-137.2-96.1-111.3-181.1c28.8,0.9,57.6-2,81.2-13.9C243,92.3,260,57.2,243.9,28 C220-17.2,159.1,1.4,134.4,32.8c-9.1,10.8-19.5,27.3-28,48c-15.8-1.8-33-4.7-51.6-8.8c-24.1-4.6-31.7,30.5-7.9,36.3 c17,3.7,33,6.5,48,8.5c-8.8,42.4-11.3,91,24.6,144.2c31.5,44.9,79.5,77,133.7,77.7c30.4,71.9,118.8,133.8,193.5,160l0,0 C468.4,501.5,476.2,470.9,455.6,463z M200.7,38c10.8,1.7,16.4,14.1,8.3,25.1c-9.1,13.8-41.7,20-62.8,19.8 C157.2,59.4,177,36.6,200.7,38z M280.6,296.8c-1.6-14.7,3.1-42.1,16-39.8C319.2,263.1,298.5,289.4,280.6,296.8z"></path></svg>