<?xml version="1.0" encoding="UTF-8" standalone="no"?>
<!-- Created with Inkscape (http://www.inkscape.org/) -->

<svg
   version="1.1"
   id="svg1"
   width="500"
   height="250"
   viewBox="0 0 500 250"
   sodipodi:docname="Kapras Automation.svg"
   inkscape:version="1.4.2 (f4327f4, 2025-05-13)"
   xmlns:inkscape="http://www.inkscape.org/namespaces/inkscape"
   xmlns:sodipodi="http://sodipodi.sourceforge.net/DTD/sodipodi-0.dtd"
   xmlns="http://www.w3.org/2000/svg"
   xmlns:svg="http://www.w3.org/2000/svg">
  <defs
     id="defs1" />
  <sodipodi:namedview
     id="namedview1"
     pagecolor="#ffffff"
     bordercolor="#000000"
     borderopacity="0.25"
     inkscape:showpageshadow="2"
     inkscape:pageopacity="0.0"
     inkscape:pagecheckerboard="0"
     inkscape:deskcolor="#d1d1d1"
     inkscape:zoom="1.6503872"
     inkscape:cx="61.500718"
     inkscape:cy="189.3495"
     inkscape:window-width="2560"
     inkscape:window-height="1406"
     inkscape:window-x="-11"
     inkscape:window-y="-11"
     inkscape:window-maximized="1"
     inkscape:current-layer="g1" />
  <g
     inkscape:groupmode="layer"
     inkscape:label="Image"
     id="g1">
    <g
       id="g2"
       transform="translate(5.4532667,4.8473557)">
      <path
         style="fill:#b9b9b9;fill-opacity:1"
         d="m 65.5,237.93009 c -2.75,-0.45906 -9.05,-2.84903 -14,-5.31102 C 28.726068,221.29192 12.074568,197.0477 4.2647822,163.84562 1.9230686,153.89019 1.5901822,150.3557 1.5480339,135 1.5078521,120.36071 1.8874629,115.6201 3.8702478,106 12.455059,64.348099 32.542747,33.486166 61.087981,18.092929 81.217706,7.2378204 105.65517,7.3045939 124.87594,18.267225 c 8.24489,4.7025 22.54248,18.200018 21.67458,20.46171 -0.29018,0.756217 -0.11075,1.117309 0.39874,0.802426 1.34731,-0.832685 6.59937,7.241382 11.57239,17.790425 9.30031,19.728281 11.88121,32.366073 11.88121,58.178214 0,21.07742 -1.51125,30.97623 -7.4576,48.84804 -2.16816,6.51643 -3.63143,12.36643 -3.25172,13 0.37971,0.63358 -0.0753,0.53079 -1.01115,-0.22843 -1.09884,-0.89144 -3.07794,-1.19577 -5.58743,-0.85917 l -3.88591,0.52121 1.95919,-4.42908 c 3.20951,-7.25563 7.65042,-23.19956 9.28979,-33.35257 1.70771,-10.57625 2.03761,-30.60893 0.59285,-36 -0.51588,-1.925 -1.19215,-5.975 -1.50282,-9 -0.93403,-9.094755 -2.28557,-16.218674 -4.07896,-21.5 -8.57734,-25.259329 -25.15368,-43.846804 -45.34256,-50.843797 -7.10268,-2.461621 -20.294652,-3.263763 -28.395413,-1.72659 -8.580406,1.628188 -23.173439,9.019916 -31.327115,15.867948 -8.425999,7.076748 -19.004238,20.918034 -24.773351,32.415137 -2.404563,4.791984 -4.727292,8.391984 -5.161622,8 -0.434329,-0.391984 -0.495024,-0.197183 -0.134878,0.43289 0.360147,0.630073 -0.513458,4.230073 -1.941344,8 -6.602639,17.432382 -9.9351831,46.372432 -7.463491,64.813482 2.139706,15.96413 6.152195,29.62895 12.344745,42.04093 3.780966,7.57834 16.287018,22.8893 17.887919,21.89988 0.48816,-0.30169 0.763914,0.0327 0.612787,0.74322 -0.402078,1.89022 13.8305,11.14492 20.229313,13.15407 9.258245,2.90698 18.581617,3.6292 26.839623,2.07911 4.039042,-0.75816 7.821071,-1.08345 8.404509,-0.72287 0.595086,0.36778 0.769623,0.18448 0.39756,-0.41753 -0.389849,-0.63079 0.515373,-1.332 2.19607,-1.70114 4.983208,-1.0945 17.402638,-9.05694 24.772988,-15.88265 3.91316,-3.62399 7.43816,-6.26576 7.83333,-5.87058 0.39517,0.39517 0.58539,0.26849 0.42271,-0.28151 -0.16268,-0.55 0.26565,-2.0125 0.95185,-3.25 1.03342,-1.86368 2.10009,-2.25 6.21245,-2.25 2.73065,0 4.96482,0.43144 4.96482,0.95876 0,1.46776 -11.47057,14.83476 -16.25457,18.94196 -10.94967,9.40057 -23.90977,16.39028 -34.586038,18.6531 -7.222245,1.53075 -20.68481,1.7075 -28.659392,0.37627 z m 73.83333,-52.3861 c 0,-0.80081 0.38234,-1.21971 0.84965,-0.9309 0.4673,0.28881 0.59075,0.94401 0.27431,1.45601 -0.80862,1.30838 -1.12396,1.16106 -1.12396,-0.52511 z m 348.83477,-2.72757 c -0.15399,-4.29032 -0.399,-4.71855 -2.9181,-5.10017 l -2.75,-0.41659 2.78138,-0.14983 c 3.26803,-0.17605 4.00056,1.20168 3.45336,6.49501 -0.38398,3.71438 -0.40467,3.68413 -0.56664,-0.82842 z M 179.50708,166.01145 c -0.35034,-0.56686 0.0511,-0.7345 0.94098,-0.39301 1.73242,0.66479 2.04939,1.38156 0.61096,1.38156 -0.51754,0 -1.21592,-0.44485 -1.55194,-0.98855 z m 168.30542,0.30544 c 0.72187,-0.28887 1.58438,-0.25335 1.91667,0.0789 0.33229,0.33229 -0.25834,0.56864 -1.3125,0.52522 -1.16495,-0.048 -1.4019,-0.28494 -0.60417,-0.60416 z M 481,166.60699 c 0,-0.21616 0.69837,-0.661 1.55194,-0.98855 0.88992,-0.34149 1.29132,-0.17385 0.94098,0.39301 C 482.90566,166.96166 481,167.4169 481,166.60699 Z m -184,-2.98455 c 0,-0.20765 0.7875,-0.99515 1.75,-1.75 1.58606,-1.24387 1.62143,-1.2085 0.37756,0.37756 C 297.82119,163.91575 297,164.44548 297,163.62244 Z m 98.07895,-2.20577 c 0.048,-1.16495 0.28494,-1.4019 0.60416,-0.60417 0.28887,0.72187 0.25335,1.58437 -0.0789,1.91667 -0.33229,0.33229 -0.56864,-0.25834 -0.52522,-1.3125 z m 5.42813,0.59478 c -0.35034,-0.56686 0.0511,-0.7345 0.94098,-0.39301 1.73242,0.66479 2.04939,1.38156 0.61096,1.38156 -0.51754,0 -1.21592,-0.44485 -1.55194,-0.98855 z M 432.87244,161.25 c -1.24387,-1.58606 -1.2085,-1.62143 0.37756,-0.37756 0.9625,0.75485 1.75,1.54235 1.75,1.75 0,0.82304 -0.82119,0.29331 -2.12756,-1.37244 z m -326.46745,-1.5 -1.90499,-2.25 2.25,1.90499 c 2.11444,1.79022 2.70524,2.59501 1.90499,2.59501 -0.18976,0 -1.20226,-1.0125 -2.25,-2.25 z M 293,161.62244 c 0,-0.20765 0.7875,-0.99515 1.75,-1.75 1.58606,-1.24387 1.62143,-1.2085 0.37756,0.37756 C 293.82119,161.91575 293,162.44548 293,161.62244 Z m 85,-1 c 0,-0.20765 0.7875,-0.99515 1.75,-1.75 1.58606,-1.24387 1.62143,-1.2085 0.37756,0.37756 C 378.82119,160.91575 378,161.44548 378,160.62244 Z M 275.232,153 c 0,-1.925 0.2058,-2.7125 0.45733,-1.75 0.25152,0.9625 0.25152,2.5375 0,3.5 -0.25153,0.9625 -0.45733,0.175 -0.45733,-1.75 z m -162.35956,-0.75 c -1.24387,-1.58606 -1.2085,-1.62143 0.37756,-0.37756 0.9625,0.75485 1.75,1.54235 1.75,1.75 0,0.82304 -0.82119,0.29331 -2.12756,-1.37244 z m 82.87756,0.0877 c 0.6875,-0.27741 1.8125,-0.27741 2.5,0 0.6875,0.27741 0.125,0.50439 -1.25,0.50439 -1.375,0 -1.9375,-0.22698 -1.25,-0.50439 z M 454.28601,146.5 c 0.008,-2.75 0.20172,-3.75631 0.43157,-2.23625 0.22986,1.52006 0.22371,3.77006 -0.0136,5 -0.23736,1.22994 -0.42542,-0.0137 -0.41792,-2.76375 z M 304.15789,146 c 0,-1.375 0.22698,-1.9375 0.50439,-1.25 0.27741,0.6875 0.27741,1.8125 0,2.5 -0.27741,0.6875 -0.50439,0.125 -0.50439,-1.25 z m 26.92106,-1.58333 c 0.048,-1.16495 0.28494,-1.4019 0.60416,-0.60417 0.28887,0.72187 0.25335,1.58437 -0.0789,1.91667 -0.33229,0.33229 -0.56864,-0.25834 -0.52522,-1.3125 z M 75.235315,136.40536 71.5,132.81073 l 4.25,3.262 c 2.3375,1.7941 4.25,3.41169 4.25,3.59463 0,0.93848 -1.385455,-0.01 -4.764685,-3.262 z M 280,137.62244 c 0,-0.20765 0.7875,-0.99515 1.75,-1.75 1.58606,-1.24387 1.62143,-1.2085 0.37756,0.37756 C 280.82119,137.91575 280,138.44548 280,137.62244 Z m 39.08333,0.1169 c 0.22917,-0.14336 1.54167,-1.15586 2.91667,-2.25 l 2.5,-1.98934 -1.90499,2.25 c -1.04774,1.2375 -2.36024,2.25 -2.91666,2.25 -0.55643,0 -0.82418,-0.1173 -0.59502,-0.26066 z M 470,137.62244 c 0,-0.20765 0.7875,-0.99515 1.75,-1.75 1.58606,-1.24387 1.62143,-1.2085 0.37756,0.37756 C 470.82119,137.91575 470,138.44548 470,137.62244 Z m -179.25,-2.28472 c 0.6875,-0.27741 1.8125,-0.27741 2.5,0 0.6875,0.27741 0.125,0.50439 -1.25,0.50439 -1.375,0 -1.9375,-0.22698 -1.25,-0.50439 z m 151.0625,-0.0208 c 0.72187,-0.28887 1.58438,-0.25335 1.91667,0.0789 0.33229,0.33229 -0.25834,0.56864 -1.3125,0.52522 -1.16495,-0.048 -1.4019,-0.28494 -0.60417,-0.60416 z M 408.5,133.28693 c -3.06263,-0.73665 -4.00399,-2.10593 -1.06104,-1.54335 1.42483,0.27237 2.8355,0.89149 3.13483,1.37582 0.29934,0.48433 0.40519,0.8284 0.23523,0.7646 -0.16996,-0.0638 -1.20902,-0.33248 -2.30902,-0.59707 z m -156.6875,-0.97004 c 0.72187,-0.28887 1.58437,-0.25335 1.91667,0.0789 0.33229,0.33229 -0.25834,0.56864 -1.3125,0.52522 -1.16495,-0.048 -1.4019,-0.28494 -0.60417,-0.60416 z m 11.75179,-0.61002 c 0.37553,-0.98622 0.93469,-1.54122 1.24258,-1.23333 0.30789,0.30789 6.4e-4,1.11479 -0.68278,1.79313 -0.98762,0.98026 -1.10248,0.8654 -0.5598,-0.5598 z m 7.18571,0.63085 c 0.6875,-0.27741 1.8125,-0.27741 2.5,0 0.6875,0.27741 0.125,0.50439 -1.25,0.50439 -1.375,0 -1.9375,-0.22698 -1.25,-0.50439 z M 77.078947,120.41667 c 0.04798,-1.16495 0.284941,-1.4019 0.604167,-0.60417 0.288871,0.72187 0.253344,1.58437 -0.07895,1.91667 -0.332292,0.33229 -0.568641,-0.25834 -0.52522,-1.3125 z M 204.75,119.33772 c 0.6875,-0.27741 1.8125,-0.27741 2.5,0 0.6875,0.27741 0.125,0.50439 -1.25,0.50439 -1.375,0 -1.9375,-0.22698 -1.25,-0.50439 z M 72,109.5 c 1.291745,-1.375 2.573628,-2.5 2.848628,-2.5 0.275,0 -0.556883,1.125 -1.848628,2.5 -1.291745,1.375 -2.573628,2.5 -2.848628,2.5 -0.275,0 0.556883,-1.125 1.848628,-2.5 z m 184.07895,-9.08333 c 0.048,-1.164946 0.28494,-1.401903 0.60416,-0.60417 0.28887,0.72187 0.25335,1.58437 -0.0789,1.91667 -0.33229,0.33229 -0.56864,-0.25834 -0.52522,-1.3125 z M 91.8125,100.31689 c 0.721875,-0.28887 1.584375,-0.25335 1.916667,0.0789 0.332291,0.3323 -0.258334,0.56864 -1.3125,0.52522 -1.164943,-0.048 -1.4019,-0.28494 -0.604167,-0.60416 z M 102.75,99.294267 c 1.2375,-0.238353 3.2625,-0.238353 4.5,0 1.2375,0.238353 0.225,0.433369 -2.25,0.433369 -2.475,0 -3.4875,-0.195016 -2.25,-0.433369 z m 8,-0.956548 c 0.6875,-0.277412 1.8125,-0.277412 2.5,0 0.6875,0.277413 0.125,0.504386 -1.25,0.504386 -1.375,0 -1.9375,-0.226973 -1.25,-0.504386 z m 5.0625,-0.02083 c 0.72187,-0.288871 1.58437,-0.253344 1.91667,0.07895 0.33229,0.332292 -0.25834,0.568641 -1.3125,0.52522 -1.16495,-0.04798 -1.4019,-0.284941 -0.60417,-0.604167 z M 322.75,93.337719 c 0.6875,-0.277412 1.8125,-0.277412 2.5,0 0.6875,0.277413 0.125,0.504386 -1.25,0.504386 -1.375,0 -1.9375,-0.226973 -1.25,-0.504386 z M 229.87244,91.25 C 228.62857,89.663944 228.66394,89.628574 230.25,90.872445 231.91575,92.178814 232.44548,93 231.62244,93 c -0.20765,0 -0.99515,-0.7875 -1.75,-1.75 z M 241.5,90 c 0.99549,-1.1 2.03498,-2 2.30998,-2 0.275,0 -0.31449,0.9 -1.30998,2 -0.99549,1.1 -2.03498,2 -2.30998,2 -0.275,0 0.31449,-0.9 1.30998,-2 z m 129.69495,-3.5 c 0.0204,-1.65 0.2445,-2.203936 0.49804,-1.230968 0.25354,0.972967 0.23687,2.322967 -0.0371,3 C 371.38201,88.946064 371.17457,88.15 371.19495,86.5 Z M 240.8125,79.316886 c 0.72187,-0.288871 1.58437,-0.253344 1.91667,0.07895 0.33229,0.332292 -0.25834,0.568641 -1.3125,0.52522 -1.16495,-0.04798 -1.4019,-0.284941 -0.60417,-0.604167 z M 194,77.687091 c 0,-0.1721 1.4625,-1.6346 3.25,-3.25 L 200.5,71.5 197.56291,74.75 C 194.82513,77.779455 194,78.459652 194,77.687091 Z M 352.87244,76.25 C 351.62857,74.663944 351.66394,74.628574 353.25,75.872445 354.91575,77.178814 355.44548,78 354.62244,78 c -0.20765,0 -0.99515,-0.7875 -1.75,-1.75 z M 237.75,76.337719 c 0.6875,-0.277412 1.8125,-0.277412 2.5,0 0.6875,0.277413 0.125,0.504386 -1.25,0.504386 -1.375,0 -1.9375,-0.226973 -1.25,-0.504386 z m 89,0 c 0.6875,-0.277412 1.8125,-0.277412 2.5,0 0.6875,0.277413 0.125,0.504386 -1.25,0.504386 -1.375,0 -1.9375,-0.226973 -1.25,-0.504386 z M 252.19495,70.5 c 0.0204,-1.65 0.2445,-2.203936 0.49804,-1.230968 0.25354,0.972967 0.23687,2.322967 -0.0371,3 C 252.38201,72.946064 252.17457,72.15 252.19495,70.5 Z m 98.96294,0.5 c 0,-1.375 0.22698,-1.9375 0.50439,-1.25 0.27741,0.6875 0.27741,1.8125 0,2.5 -0.27741,0.6875 -0.50439,0.125 -0.50439,-1.25 z M 194,71.687091 c 0,-0.1721 1.4625,-1.6346 3.25,-3.25 L 200.5,65.5 197.56291,68.75 C 194.82513,71.779455 194,72.459652 194,71.687091 Z m 127,-2.064646 c 0,-0.207656 0.7875,-0.995156 1.75,-1.75 1.58606,-1.243871 1.62143,-1.208501 0.37756,0.377555 C 321.82119,69.915748 321,70.445479 321,69.622445 Z M 334.87244,67.25 C 333.62857,65.663944 333.66394,65.628574 335.25,66.872445 336.91575,68.178814 337.44548,69 336.62244,69 c -0.20765,0 -0.99515,-0.7875 -1.75,-1.75 z M 308.8125,66.316886 c 0.72187,-0.288871 1.58438,-0.253344 1.91667,0.07895 0.33229,0.332292 -0.25834,0.568641 -1.3125,0.52522 -1.16495,-0.04798 -1.4019,-0.284941 -0.60417,-0.604167 z m -69.54347,-1.009877 c 0.97297,-0.253543 2.32297,-0.236869 3,0.03705 0.67703,0.273923 -0.11903,0.481368 -1.76903,0.460988 -1.65,-0.02038 -2.20394,-0.244498 -1.23097,-0.498042 z M 304,65.622445 c 0,-0.207656 0.7875,-0.995156 1.75,-1.75 1.58606,-1.243871 1.62143,-1.208501 0.37756,0.377555 C 304.82119,65.915748 304,66.445479 304,65.622445 Z m 24.26903,-0.315436 c 0.97297,-0.253543 2.32297,-0.236869 3,0.03705 0.67703,0.273923 -0.11903,0.481368 -1.76903,0.460988 -1.65,-0.02038 -2.20394,-0.244498 -1.23097,-0.498042 z m -27.19008,-1.890342 c 0.048,-1.164943 0.28494,-1.4019 0.60416,-0.604167 0.28887,0.721875 0.25335,1.584375 -0.0789,1.916667 -0.33229,0.332291 -0.56864,-0.258334 -0.52522,-1.3125 z M 202,63.687091 c 0,-0.1721 1.4625,-1.6346 3.25,-3.25 L 208.5,57.5 205.56291,60.75 C 202.82513,63.779455 202,64.459652 202,63.687091 Z m 126.75,-2.349372 c 0.6875,-0.277412 1.8125,-0.277412 2.5,0 0.6875,0.277413 0.125,0.504386 -1.25,0.504386 -1.375,0 -1.9375,-0.226973 -1.25,-0.504386 z M 213,59.622445 c 0,-0.207656 0.7875,-0.995156 1.75,-1.75 1.58606,-1.243871 1.62143,-1.208501 0.37756,0.377555 C 213.82119,59.915748 213,60.445479 213,59.622445 Z"
         id="path5" />
      <path
         style="fill:#a3a3a3;fill-opacity:1"
         d="m 133.87244,180.25 c -1.24387,-1.58606 -1.2085,-1.62143 0.37756,-0.37756 0.9625,0.75485 1.75,1.54235 1.75,1.75 0,0.82304 -0.82119,0.29331 -2.12756,-1.37244 z M 154.5,177 l -4,-0.71619 3.69098,-0.1419 c 2.03004,-0.078 3.9691,0.30809 4.30902,0.85809 0.33992,0.55 0.47898,0.93614 0.30902,0.85809 C 158.63906,177.78005 156.7,177.3939 154.5,177 Z m -20.62756,-8.75 c -1.24387,-1.58606 -1.2085,-1.62143 0.37756,-0.37756 0.9625,0.75485 1.75,1.54235 1.75,1.75 0,0.82304 -0.82119,0.29331 -2.12756,-1.37244 z M 216.15789,164 c 0,-1.375 0.22698,-1.9375 0.50439,-1.25 0.27741,0.6875 0.27741,1.8125 0,2.5 -0.27741,0.6875 -0.50439,0.125 -0.50439,-1.25 z m 27.92106,0.41667 c 0.048,-1.16495 0.28494,-1.4019 0.60416,-0.60417 0.28887,0.72187 0.25335,1.58437 -0.0789,1.91667 -0.3323,0.33229 -0.56864,-0.25834 -0.52522,-1.3125 z m -10.26645,-1.09978 c 0.72187,-0.28887 1.58437,-0.25335 1.91667,0.0789 0.33229,0.33229 -0.25834,0.56864 -1.3125,0.52522 -1.16495,-0.048 -1.4019,-0.28494 -0.60417,-0.60416 z m 52.9375,0.0208 c 0.6875,-0.27741 1.8125,-0.27741 2.5,0 0.6875,0.27741 0.125,0.50439 -1.25,0.50439 -1.375,0 -1.9375,-0.22698 -1.25,-0.50439 z m 83.51903,-0.0307 c 0.97297,-0.25354 2.32297,-0.23687 3,0.0371 0.67703,0.27393 -0.11903,0.48137 -1.76903,0.46099 -1.65,-0.0204 -2.20394,-0.2445 -1.23097,-0.49804 z M 385.19495,161.5 c 0.0204,-1.65 0.2445,-2.20394 0.49804,-1.23097 0.25354,0.97297 0.23687,2.32297 -0.0371,3 -0.27393,0.67703 -0.48137,-0.11903 -0.46099,-1.76903 z m 52.07408,1.80701 c 0.97297,-0.25354 2.32297,-0.23687 3,0.0371 0.67703,0.27393 -0.11903,0.48137 -1.76903,0.46099 -1.65,-0.0204 -2.20394,-0.2445 -1.23097,-0.49804 z m -195.9357,-1.76302 c 0,-0.80081 0.38234,-1.21971 0.84965,-0.9309 0.4673,0.28881 0.59075,0.94401 0.27431,1.45601 -0.80862,1.30838 -1.12396,1.16106 -1.12396,-0.52511 z M 448,162.62244 c 0,-0.20765 0.7875,-0.99515 1.75,-1.75 1.58606,-1.24387 1.62143,-1.2085 0.37756,0.37756 C 448.82119,162.91575 448,163.44548 448,162.62244 Z M 225.232,159 c 0,-1.925 0.2058,-2.7125 0.45733,-1.75 0.25152,0.9625 0.25152,2.5375 0,3.5 -0.25153,0.9625 -0.45733,0.175 -0.45733,-1.75 z m -14.15305,-0.58333 c 0.048,-1.16495 0.28494,-1.4019 0.60416,-0.60417 0.28887,0.72187 0.25335,1.58437 -0.0789,1.91667 -0.3323,0.33229 -0.56864,-0.25834 -0.52522,-1.3125 z M 426.15789,156 c 0,-1.375 0.22698,-1.9375 0.50439,-1.25 0.27741,0.6875 0.27741,1.8125 0,2.5 -0.27741,0.6875 -0.50439,0.125 -0.50439,-1.25 z M 208,153 c -2.32726,-0.74532 -2.34861,-0.80753 -0.30902,-0.90032 1.20504,-0.0548 2.4691,0.35032 2.80902,0.90032 0.33992,0.55 0.47898,0.95514 0.30902,0.90032 C 210.63906,153.8455 209.375,153.44035 208,153 Z m 71.07895,-0.58333 c 0.048,-1.16495 0.28494,-1.4019 0.60416,-0.60417 0.28887,0.72187 0.25335,1.58437 -0.0789,1.91667 -0.33229,0.33229 -0.56864,-0.25834 -0.52522,-1.3125 z m 51,0 c 0.048,-1.16495 0.28494,-1.4019 0.60416,-0.60417 0.28887,0.72187 0.25335,1.58437 -0.0789,1.91667 -0.33229,0.33229 -0.56864,-0.25834 -0.52522,-1.3125 z m -137.26645,-0.0998 c 0.72187,-0.28887 1.58437,-0.25335 1.91667,0.0789 0.33229,0.33229 -0.25834,0.56864 -1.3125,0.52522 -1.16495,-0.048 -1.4019,-0.28494 -0.60417,-0.60416 z m 7.45653,-0.01 c 0.97297,-0.25354 2.32297,-0.23687 3,0.0371 0.67703,0.27393 -0.11903,0.48137 -1.76903,0.46099 -1.65,-0.0204 -2.20394,-0.2445 -1.23097,-0.49804 z m 25.80992,-0.89034 c 0.048,-1.16495 0.28494,-1.4019 0.60416,-0.60417 0.28887,0.72187 0.25335,1.58437 -0.0789,1.91667 -0.3323,0.33229 -0.56864,-0.25834 -0.52522,-1.3125 z m 171,0 c 0.048,-1.16495 0.28494,-1.4019 0.60416,-0.60417 0.28887,0.72187 0.25335,1.58437 -0.0789,1.91667 -0.33229,0.33229 -0.56864,-0.25834 -0.52522,-1.3125 z M 426.15789,149 c 0,-1.375 0.22698,-1.9375 0.50439,-1.25 0.27741,0.6875 0.27741,1.8125 0,2.5 -0.27741,0.6875 -0.50439,0.125 -0.50439,-1.25 z m -165.07894,-0.58333 c 0.048,-1.16495 0.28494,-1.4019 0.60416,-0.60417 0.28887,0.72187 0.25335,1.58437 -0.0789,1.91667 -0.33229,0.33229 -0.56864,-0.25834 -0.52522,-1.3125 z m 157,0 c 0.048,-1.16495 0.28494,-1.4019 0.60416,-0.60417 0.28887,0.72187 0.25335,1.58437 -0.0789,1.91667 -0.33229,0.33229 -0.56864,-0.25834 -0.52522,-1.3125 z M 450.25218,146.5 c 0.0111,-2.2 0.21589,-2.98225 0.45508,-1.73834 0.23919,1.24391 0.23011,3.04391 -0.0202,4 -0.25029,0.95609 -0.446,-0.0617 -0.4349,-2.26166 z m -344.37974,0.75 c -1.24387,-1.58606 -1.2085,-1.62143 0.37756,-0.37756 0.9625,0.75485 1.75,1.54235 1.75,1.75 0,0.82304 -0.82119,0.29331 -2.12756,-1.37244 z M 300.232,146 c 0,-1.925 0.2058,-2.7125 0.45733,-1.75 0.25152,0.9625 0.25152,2.5375 0,3.5 -0.25153,0.9625 -0.45733,0.175 -0.45733,-1.75 z m 70.5805,1.31689 c 0.72187,-0.28887 1.58438,-0.25335 1.91667,0.0789 0.33229,0.33229 -0.25834,0.56864 -1.3125,0.52522 -1.16495,-0.048 -1.4019,-0.28494 -0.60417,-0.60416 z m -161.73355,-1.90022 c 0.048,-1.16495 0.28494,-1.4019 0.60416,-0.60417 0.28887,0.72187 0.25335,1.58437 -0.0789,1.91667 -0.3323,0.33229 -0.56864,-0.25834 -0.52522,-1.3125 z m 22,0 c 0.048,-1.16495 0.28494,-1.4019 0.60416,-0.60417 0.28887,0.72187 0.25335,1.58437 -0.0789,1.91667 -0.3323,0.33229 -0.56864,-0.25834 -0.52522,-1.3125 z m 31,-2 c 0.048,-1.16495 0.28494,-1.4019 0.60416,-0.60417 0.28887,0.72187 0.25335,1.58437 -0.0789,1.91667 -0.33229,0.33229 -0.56864,-0.25834 -0.52522,-1.3125 z m 4,-1 c 0.048,-1.16495 0.28494,-1.4019 0.60416,-0.60417 0.28887,0.72187 0.25335,1.58437 -0.0789,1.91667 -0.33229,0.33229 -0.56864,-0.25834 -0.52522,-1.3125 z m 31.527,-4.26461 -1.89405,-2.65206 2.3385,2.22222 c 1.28617,1.22222 2.13849,2.41565 1.89404,2.65206 -0.24444,0.23641 -1.29676,-0.76359 -2.33849,-2.22222 z m 166.473,0.26461 c 0.048,-1.16495 0.28494,-1.4019 0.60416,-0.60417 0.28887,0.72187 0.25335,1.58437 -0.0789,1.91667 -0.33229,0.33229 -0.56864,-0.25834 -0.52522,-1.3125 z M 432,136.5 c 1.29175,-1.375 2.57363,-2.5 2.84863,-2.5 0.275,0 -0.55688,1.125 -1.84863,2.5 -1.29175,1.375 -2.57363,2.5 -2.84863,2.5 -0.275,0 0.55688,-1.125 1.84863,-2.5 z m -94,1.12244 c 0,-0.20765 0.7875,-0.99515 1.75,-1.75 1.58606,-1.24387 1.62143,-1.2085 0.37756,0.37756 C 338.82119,137.91575 338,138.44548 338,137.62244 Z M 299.87244,135.25 c -1.24387,-1.58606 -1.2085,-1.62143 0.37756,-0.37756 0.9625,0.75485 1.75,1.54235 1.75,1.75 0,0.82304 -0.82119,0.29331 -2.12756,-1.37244 z m 76.94006,0.0669 c 0.72187,-0.28887 1.58438,-0.25335 1.91667,0.0789 0.33229,0.33229 -0.25834,0.56864 -1.3125,0.52522 -1.16495,-0.048 -1.4019,-0.28494 -0.60417,-0.60416 z m 40.3035,-0.59827 c -0.1396,-2.14373 2.58836,-3.41426 4.09527,-1.90735 0.76911,0.76911 0.49019,0.92342 -0.97603,0.54 -1.43773,-0.37598 -2.19524,0.0153 -2.52805,1.30595 -0.4386,1.70089 -0.48412,1.70561 -0.59119,0.0614 z M 229.2522,134 c 0.22245,-0.825 1.49421,-1.58309 2.82613,-1.68464 1.90949,-0.1456 1.99867,-0.0683 0.42167,0.36568 -1.1,0.30268 -2.37176,1.06077 -2.82613,1.68464 -0.54586,0.74949 -0.68891,0.62542 -0.42167,-0.36568 z m -21.97984,-4 c 0,-2.475 0.19502,-3.4875 0.43337,-2.25 0.23836,1.2375 0.23836,3.2625 0,4.5 -0.23835,1.2375 -0.43337,0.225 -0.43337,-2.25 z m 108.49609,2.83155 c 0.5811,-0.5811 1.64682,-0.85979 2.36826,-0.61931 0.74895,0.24965 0.29565,0.70294 -1.05655,1.05655 -1.66335,0.43497 -2.05378,0.30483 -1.31171,-0.43724 z m 150,0 c 0.5811,-0.5811 1.64682,-0.85979 2.36826,-0.61931 0.74895,0.24965 0.29565,0.70294 -1.05655,1.05655 -1.66335,0.43497 -2.05378,0.30483 -1.31171,-0.43724 z m -200.6895,-5.41488 c 0.048,-1.16495 0.28494,-1.4019 0.60416,-0.60417 0.28887,0.72187 0.25335,1.58437 -0.0789,1.91667 -0.33229,0.33229 -0.56864,-0.25834 -0.52522,-1.3125 z M 210.15789,126 c 0,-1.375 0.22698,-1.9375 0.50439,-1.25 0.27741,0.6875 0.27741,1.8125 0,2.5 -0.27741,0.6875 -0.50439,0.125 -0.50439,-1.25 z m -88.07894,-0.58333 c 0.048,-1.16495 0.28494,-1.4019 0.60416,-0.60417 0.28887,0.72187 0.25335,1.58437 -0.0789,1.91667 -0.3323,0.33229 -0.56864,-0.25834 -0.52522,-1.3125 z m 298.73355,-0.0998 c 0.72187,-0.28887 1.58438,-0.25335 1.91667,0.0789 0.33229,0.3323 -0.25834,0.56864 -1.3125,0.52522 -1.16495,-0.048 -1.4019,-0.28494 -0.60417,-0.60416 z M 67.252183,120.5 c 0.0111,-2.2 0.215885,-2.98225 0.455078,-1.73834 0.239193,1.24391 0.230112,3.04391 -0.02018,4 C 67.436788,123.71775 67.241084,122.7 67.252183,120.5 Z M 421.8125,119.31689 c 0.72187,-0.28887 1.58438,-0.25335 1.91667,0.0789 0.33229,0.3323 -0.25834,0.56864 -1.3125,0.52522 -1.16495,-0.048 -1.4019,-0.28494 -0.60417,-0.60416 z M 78,117.62244 c 0,-0.20765 0.7875,-0.99515 1.75,-1.75 1.586056,-1.24387 1.621426,-1.2085 0.377555,0.37756 C 78.821186,117.91575 78,118.44548 78,117.62244 Z M 125,109.75 c 0,-0.87083 -0.5625,-1.81031 -1.25,-2.08772 -0.97906,-0.39506 -0.97226,-0.5215 0.0314,-0.58333 1.42594,-0.0879 2.81771,2.65529 1.84216,3.63084 C 125.28059,111.05274 125,110.62083 125,109.75 Z m 19.75,-4.41228 c 0.6875,-0.27741 1.8125,-0.27741 2.5,0 0.6875,0.27741 0.125,0.50439 -1.25,0.50439 -1.375,0 -1.9375,-0.22698 -1.25,-0.50439 z m -56,-4 c 0.6875,-0.27741 1.8125,-0.27741 2.5,0 0.6875,0.27741 0.125,0.50439 -1.25,0.50439 -1.375,0 -1.9375,-0.22698 -1.25,-0.50439 z m 6.0625,-1.02083 c 0.721875,-0.28887 1.584375,-0.25335 1.916667,0.0789 0.332291,0.3323 -0.258334,0.56864 -1.3125,0.52522 -1.164943,-0.048 -1.4019,-0.28494 -0.604167,-0.60416 z m 3.9375,0.0208 c 0.6875,-0.27741 1.8125,-0.27741 2.5,0 0.6875,0.27741 0.125,0.50439 -1.25,0.50439 -1.375,0 -1.9375,-0.22698 -1.25,-0.50439 z m 48.01166,-5.044981 c 1.24391,-0.239193 3.04391,-0.230112 4,0.02018 0.95609,0.250292 -0.0617,0.445996 -2.26166,0.434897 -2.2,-0.0111 -2.98225,-0.215885 -1.73834,-0.455077 z m 145.31729,-0.876072 c 0.048,-1.164943 0.28494,-1.4019 0.60416,-0.604167 0.28887,0.721875 0.25335,1.584375 -0.0789,1.916667 -0.33229,0.332291 -0.56864,-0.258334 -0.52522,-1.3125 z m 34.25438,0.127322 c 0,-0.800807 0.38234,-1.219712 0.84965,-0.930902 0.4673,0.28881 0.59075,0.944015 0.27431,1.456011 -0.80862,1.308382 -1.12396,1.161058 -1.12396,-0.525109 z m 37,-0.04399 c 0,-0.720125 0.6,-1.079077 1.33334,-0.79767 C 365.4,93.983736 366,94.342688 366,94.5 c 0,0.157312 -0.6,0.516264 -1.33333,0.79767 -0.73334,0.281407 -1.33334,-0.07755 -1.33334,-0.79767 z m -208.0643,-0.192991 c 0.97297,-0.253543 2.32297,-0.236869 3,0.03705 0.67703,0.273923 -0.11903,0.481368 -1.76903,0.460988 -1.65,-0.02038 -2.20394,-0.244498 -1.23097,-0.498042 z M 233.75,93.337719 c 0.6875,-0.277412 1.8125,-0.277412 2.5,0 0.6875,0.277413 0.125,0.504386 -1.25,0.504386 -1.375,0 -1.9375,-0.226973 -1.25,-0.504386 z M 348.87244,92.25 C 347.62857,90.663944 347.66394,90.628574 349.25,91.872445 350.91575,93.178814 351.44548,94 350.62244,94 c -0.20765,0 -0.99515,-0.7875 -1.75,-1.75 z m -55.79349,-2.833333 c 0.048,-1.164943 0.28494,-1.4019 0.60416,-0.604167 0.28887,0.721875 0.25335,1.584375 -0.0789,1.916667 -0.33229,0.332291 -0.56864,-0.258334 -0.52522,-1.3125 z M 313.232,87 c 0,-1.925 0.2058,-2.7125 0.45733,-1.75 0.25152,0.9625 0.25152,2.5375 0,3.5 C 313.4378,89.7125 313.232,88.925 313.232,87 Z m -89.15305,-1.583333 c 0.048,-1.164943 0.28494,-1.4019 0.60416,-0.604167 0.28887,0.721875 0.25335,1.584375 -0.0789,1.916667 -0.3323,0.332291 -0.56864,-0.258334 -0.52522,-1.3125 z m 70,-2 c 0.048,-1.164943 0.28494,-1.4019 0.60416,-0.604167 0.28887,0.721875 0.25335,1.584375 -0.0789,1.916667 -0.33229,0.332291 -0.56864,-0.258334 -0.52522,-1.3125 z M 286.15789,79 c 0,-1.375 0.22698,-1.9375 0.50439,-1.25 0.27741,0.6875 0.27741,1.8125 0,2.5 -0.27741,0.6875 -0.50439,0.125 -0.50439,-1.25 z M 334,79 c -0.90129,-0.58246 -1.02463,-0.975486 -0.30902,-0.984687 0.65504,-0.0084 1.4691,0.434687 1.80902,0.984687 0.7673,1.241525 0.42112,1.241525 -1.5,0 z m -92.1875,-2.683114 c 0.72187,-0.288871 1.58437,-0.253344 1.91667,0.07895 0.33229,0.332292 -0.25834,0.568641 -1.3125,0.52522 -1.16495,-0.04798 -1.4019,-0.284941 -0.60417,-0.604167 z M 248.19495,71.5 c 0.0204,-1.65 0.2445,-2.203936 0.49804,-1.230968 0.25354,0.972967 0.23687,2.322967 -0.0371,3 C 248.38201,73.946064 248.17457,73.15 248.19495,71.5 Z m 37.884,-0.08333 c 0.048,-1.164943 0.28494,-1.4019 0.60416,-0.604167 0.28887,0.721875 0.25335,1.584375 -0.0789,1.916667 -0.33229,0.332291 -0.56864,-0.258334 -0.52522,-1.3125 z m 51,0 c 0.048,-1.164943 0.28494,-1.4019 0.60416,-0.604167 0.28887,0.721875 0.25335,1.584375 -0.0789,1.916667 -0.33229,0.332291 -0.56864,-0.258334 -0.52522,-1.3125 z M 228.8125,71.316886 c 0.72187,-0.288871 1.58437,-0.253344 1.91667,0.07895 0.33229,0.332292 -0.25834,0.568641 -1.3125,0.52522 -1.16495,-0.04798 -1.4019,-0.284941 -0.60417,-0.604167 z m 89,0 c 0.72187,-0.288871 1.58438,-0.253344 1.91667,0.07895 0.33229,0.332292 -0.25834,0.568641 -1.3125,0.52522 -1.16495,-0.04798 -1.4019,-0.284941 -0.60417,-0.604167 z M 279.87244,67.25 c -1.24387,-1.586056 -1.2085,-1.621426 0.37756,-0.377555 0.9625,0.754844 1.75,1.542344 1.75,1.75 0,0.823034 -0.82119,0.293303 -2.12756,-1.372445 z m 17.20651,0.166667 c 0.048,-1.164943 0.28494,-1.4019 0.60416,-0.604167 0.28887,0.721875 0.25335,1.584375 -0.0789,1.916667 -0.33229,0.332291 -0.56864,-0.258334 -0.52522,-1.3125 z M 204,67.622445 c 0,-0.207656 0.7875,-0.995156 1.75,-1.75 1.58606,-1.243871 1.62143,-1.208501 0.37756,0.377555 C 204.82119,67.915748 204,68.445479 204,67.622445 Z m 25,0 c 0,-0.207656 0.7875,-0.995156 1.75,-1.75 1.58606,-1.243871 1.62143,-1.208501 0.37756,0.377555 C 229.82119,67.915748 229,68.445479 229,67.622445 Z m 34.07895,-1.205778 c 0.048,-1.164943 0.28494,-1.4019 0.60416,-0.604167 0.28887,0.721875 0.25335,1.584375 -0.0789,1.916667 -0.33229,0.332291 -0.56864,-0.258334 -0.52522,-1.3125 z M 319.5,66 c 0.99549,-1.1 2.03498,-2 2.30998,-2 0.275,0 -0.31449,0.9 -1.30998,2 -0.99549,1.1 -2.03498,2 -2.30998,2 -0.275,0 0.31449,-0.9 1.30998,-2 z m -48.84917,-1.166667 c 1.9005,-2.100028 3.16323,-2.519141 1.48029,-0.491324 -0.61257,0.738105 -0.89267,1.563105 -0.62244,1.833334 0.27022,0.270228 -0.18555,0.491324 -1.01284,0.491324 -1.28251,0 -1.25967,-0.270146 0.15499,-1.833334 z M 353,65.622445 c 0,-0.207656 0.7875,-0.995156 1.75,-1.75 1.58606,-1.243871 1.62143,-1.208501 0.37756,0.377555 C 353.82119,65.915748 353,66.445479 353,65.622445 Z M 211,55.687091 c 0,-0.1721 1.4625,-1.6346 3.25,-3.25 L 217.5,49.5 214.56291,52.75 C 211.82513,55.779455 211,56.459652 211,55.687091 Z m 8.26903,-6.380082 c 0.97297,-0.253543 2.32297,-0.236869 3,0.03705 0.67703,0.273923 -0.11903,0.481368 -1.76903,0.460988 -1.65,-0.02038 -2.20394,-0.244498 -1.23097,-0.498042 z"
         id="path4" />
      <path
         style="fill:#8c8c8c;fill-opacity:1"
         d="m 135.55215,180.98415 c -4.37131,-3.3035 -8.24662,-6.48979 -8.6118,-7.08066 -0.36518,-0.59087 -0.95791,-1.02685 -1.31718,-0.96884 -0.35927,0.058 -7.66364,-5.19105 -16.23192,-11.66459 C 100.82297,154.79653 92.55596,148.6 91.020122,147.5 c -4.742246,-3.3965 -10.46972,-7.8338 -11.54316,-8.94294 -0.562671,-0.58138 -1.893943,-1.54429 -2.958381,-2.13979 -1.064438,-0.59551 -3.416571,-3.23214 -5.226961,-5.85919 -4.18079,-6.06673 -4.625618,-13.1841 -1.04162,-16.66619 1.2375,-1.20231 1.575,-1.81749 0.75,-1.36706 -0.970456,0.52984 -0.830336,0.0554 0.396908,-1.34401 2.720437,-3.102 10.427091,-7.40763 11.771606,-6.57667 0.666679,0.41203 0.867506,0.26315 0.483393,-0.35836 -0.418124,-0.67654 1.798762,-1.46737 6.095491,-2.17446 7.616534,-1.25341 48.226212,-5.613072 61.395482,-6.59113 l 8.64287,-0.641892 0.35713,4.421007 c 0.34925,4.323545 0.29538,4.413805 -2.44347,4.094485 -1.78886,-0.20856 -2.56307,0.0578 -2.14311,0.73729 0.44032,0.71245 -1.13312,0.98087 -4.76389,0.81268 -2.98175,-0.13812 -5.84315,0.01 -6.35867,0.32816 -0.51551,0.31861 -2.9615,0.69988 -5.43552,0.84727 -5.32232,0.31707 -6.6935,0.87306 -4.89475,1.98475 1.05536,0.65224 0.97723,1.1894 -0.39323,2.70374 -0.94063,1.03939 -1.70335,2.30436 -1.69493,2.81105 0.008,0.50669 0.49631,0.24626 1.08419,-0.57874 0.80952,-1.13602 0.92713,-0.68104 0.48469,1.875 -0.3213,1.85625 -0.58419,4.02031 -0.58419,4.80902 0,0.78871 -0.44485,1.15908 -0.98855,0.82306 -0.56009,-0.34616 -0.73839,0.0409 -0.41138,0.8931 0.31743,0.82722 0.22317,2.07681 -0.20948,2.77685 -0.43265,0.70004 -0.83946,2.18409 -0.90401,3.29789 -0.40953,7.06543 -0.53894,7.61075 -1.6441,6.92773 -0.79125,-0.48902 -0.98108,-0.0406 -0.5999,1.41697 0.30669,1.17281 0.11882,3.83067 -0.4175,5.90638 -0.53632,2.0757 -0.9648,5.124 -0.95217,6.774 0.0175,2.2947 -0.15251,2.56493 -0.72335,1.14943 -0.4453,-1.10423 -0.78938,0.94562 -0.85313,5.08258 l -0.10683,6.93316 6.90385,5.26509 c 3.81478,2.90927 6.6116,5.73796 6.25069,6.32192 -0.3845,0.62214 -0.17548,0.76162 0.50818,0.33909 0.63873,-0.39476 2.59719,0.30468 4.35213,1.55431 2.46577,1.75578 4.67965,2.30305 9.74317,2.4085 3.60381,0.0751 80.46488,0.22544 170.80238,0.33419 L 488,178.08601 V 182.543 187 L 315.75,186.995 143.5,186.99 Z M 486.66228,182.75 c -0.27741,-0.6875 -0.50439,-0.125 -0.50439,1.25 0,1.375 0.22698,1.9375 0.50439,1.25 0.27741,-0.6875 0.27741,-1.8125 0,-2.5 z M 487,180.55902 c 0,-0.24254 -0.45,-0.7191 -1,-1.05902 -0.55,-0.33992 -1,-0.14148 -1,0.44098 0,0.58246 0.45,1.05902 1,1.05902 0.55,0 1,-0.19844 1,-0.44098 z M 133,169.10699 c 0,-0.49116 -0.73865,-1.17646 -1.64144,-1.52289 -1.37248,-0.52667 -1.43434,-0.38034 -0.37756,0.89301 1.44013,1.73524 2.019,1.91584 2.019,0.62988 z M 111.5,154 c 0.33992,-0.55 0.14148,-1 -0.44098,-1 -0.58246,0 -1.05902,0.45 -1.05902,1 0,0.55 0.19844,1 0.44098,1 0.24254,0 0.7191,-0.45 1.05902,-1 z m 5.97863,-3.25 c 0.80965,-4.62252 1.92531,-10.18791 5.45002,-27.1871 1.70344,-8.2154 2.75385,-15.24317 2.33425,-15.61725 -0.41959,-0.37409 -8.1879,0.14931 -17.2629,1.16311 -9.075,1.01379 -17.085872,1.63421 -17.801938,1.37871 -0.716066,-0.25551 -1.027008,-0.0197 -0.690983,0.52398 0.336025,0.5437 -0.428103,1.05709 -1.698062,1.14086 -1.269959,0.0838 -2.833486,0.20224 -3.474504,0.26326 -0.641018,0.061 -2.518869,1.52712 -4.173004,3.25801 -1.654134,1.73089 -3.27734,2.87726 -3.607124,2.54747 -0.329784,-0.32978 -0.465039,0.28217 -0.300567,1.35989 0.420292,2.75401 4.492356,9.10768 6.275693,9.79201 0.818972,0.31427 1.372366,1.14642 1.229764,1.84922 -0.142601,0.70281 0.322017,1.15907 1.032486,1.01391 1.632366,-0.33351 10.708239,6.52638 10.708239,8.09369 0,0.64217 0.683673,1.16819 1.519274,1.16891 1.95178,0.002 6.980726,3.93097 6.980726,5.45426 0,0.6408 0.34894,0.94944 0.77543,0.68585 0.42648,-0.26358 2.78898,1.02974 5.25,2.87405 5.64827,4.23287 6.7472,4.26784 7.4532,0.23716 z M 90.666667,137.54399 c 0,-0.80081 -0.382341,-1.21971 -0.849646,-0.9309 -0.467304,0.28881 -0.590747,0.94401 -0.274316,1.45601 0.808625,1.30838 1.123962,1.16106 1.123962,-0.52511 z m -13.542579,-7.81066 c -0.987616,-0.98026 -1.10248,-0.8654 -0.559795,0.5598 0.375531,0.98622 0.934692,1.54122 1.242579,1.23333 0.307887,-0.30789 6.34e-4,-1.11479 -0.682784,-1.79313 z M 228,165 c -2.1272,-2.1272 -2.40668,-4.9695 -1.35202,-13.75 0.38513,-3.20632 1.11864,-5.25 1.88432,-5.25 0.68955,0 1.53717,-0.73865 1.8836,-1.64144 0.54576,-1.42223 0.40964,-1.45866 -1.0193,-0.27275 -1.50461,1.24872 -1.58788,0.97621 -0.94984,-3.10855 0.98666,-6.31672 1.54446,-7.97726 2.67964,-7.97726 0.5454,0 0.73727,0.41157 0.42639,0.91459 -0.31089,0.50302 -0.0955,1.07116 0.47852,1.26251 0.71304,0.23768 0.64704,2.66148 -0.20827,7.6493 -0.77819,4.53804 -1.4926,6.61561 -1.88764,5.48944 -0.4815,-1.37264 -0.74929,-1.03727 -1.10455,1.3833 -0.25793,1.75738 -0.10039,2.96744 0.35009,2.68903 1.20014,-0.74173 0.99931,3.40651 -0.28071,5.79825 -0.79969,1.49423 -0.79969,1.86948 0,1.37524 0.6225,-0.38472 1.09977,0.006 1.09977,0.90076 0,2.76424 4.37024,3.99823 7.90857,2.23308 1.70028,-0.84822 3.09143,-1.15222 3.09143,-0.67556 0,1.25657 -4.17554,3.9896 -5.16297,3.37934 -0.46037,-0.28452 -0.83703,-0.0408 -0.83703,0.5417 0,1.81706 -4.90075,1.15827 -7,-0.94098 z m 32.92142,0.13745 -2.25198,-1.82354 2.61949,-12.82654 c 1.44072,-7.0546 2.38853,-13.20023 2.10626,-13.65696 C 263.11292,136.37369 262.23352,136 261.44098,136 260.64844,136 260,135.27252 260,134.38337 c 0,-1.10771 0.6108,-1.4569 1.94026,-1.10924 1.47508,0.38574 2.19433,-0.22145 3,-2.5326 0.58286,-1.67199 1.05974,-3.82107 1.05974,-4.77574 0,-0.95468 1.07996,-2.44339 2.39991,-3.30825 l 2.39992,-1.57249 -1.29667,5.57809 c -1.21287,5.2176 -1.17482,5.60996 0.58884,6.07117 1.03703,0.27119 1.63901,0.89191 1.33774,1.37938 -0.30128,0.48747 0.0413,0.93955 0.76124,1.00462 0.71996,0.0651 -0.0125,0.40258 -1.62762,0.75 -2.29322,0.49329 -3.13162,1.38433 -3.82656,4.06682 -0.59491,2.29636 -1.15158,3.01177 -1.67921,2.15805 -0.54169,-0.87647 -0.94471,-0.46401 -1.28476,1.31487 -0.50804,2.65762 0.61237,3.58218 1.6262,1.34195 0.31114,-0.6875 0.43441,-0.35 0.27395,0.75 -0.16047,1.1 -0.82753,1.8875 -1.48237,1.75 -1.48904,-0.31266 -1.58435,1.45209 -0.10506,1.94518 0.76789,0.25597 0.79244,1.96297 0.0839,5.83334 -0.82886,4.52759 -0.73431,5.7693 0.54809,7.1979 0.85237,0.94953 1.90011,1.50989 2.32832,1.24524 0.42821,-0.26465 0.66842,0.26928 0.5338,1.18653 -0.3474,2.36698 -4.00213,2.63005 -6.65824,0.47926 z m 4.53587,-0.0684 c 0.31644,-0.512 0.0485,-1.25653 -0.59549,-1.65451 -0.69784,-0.43129 -0.9039,-0.29172 -0.51008,0.34549 0.36341,0.58801 0.0954,1.29701 -0.59549,1.57556 -0.89914,0.3625 -0.91769,0.52891 -0.0652,0.58541 0.65504,0.0434 1.44988,-0.33996 1.76631,-0.85195 z m -3.07573,-5.62104 c 0.34149,-0.88992 0.17385,-1.29132 -0.39301,-0.94098 -0.5437,0.33602 -0.98855,1.0344 -0.98855,1.55194 0,1.43843 0.71677,1.12146 1.38156,-0.61096 z M 264,151 c 0,-0.55 -0.19844,-1 -0.44098,-1 -0.24254,0 -0.7191,0.45 -1.05902,1 -0.33992,0.55 -0.14148,1 0.44098,1 0.58246,0 1.05902,-0.45 1.05902,-1 z m 19.25,15.02001 c -1.2375,-0.52556 -2.26431,-1.75756 -2.2818,-2.73779 -0.0327,-1.83196 -2.9682,-6.45384 -2.9682,-4.67335 0,0.54512 0.50063,1.49175 1.1125,2.10363 0.61187,0.61187 0.91227,1.71318 0.66755,2.44734 -1.06117,3.18351 -3.23995,-4.0058 -3.23054,-10.65984 0.0113,-8.03298 2.50174,-13.97618 7.28312,-17.38082 3.3413,-2.37922 11.16737,-3.97589 11.16737,-2.27837 0,0.6143 0.73592,0.81402 1.67361,0.4542 1.2585,-0.48294 1.51737,-0.23507 1.04367,0.99936 -0.34646,0.90287 -0.13006,1.95052 0.4809,2.32811 0.67266,0.41573 0.82938,0.23113 0.39731,-0.46797 -1.43967,-2.32944 1.32441,-1.0718 3.37561,1.53588 3.43786,4.37053 2.35825,16.66801 -1.76041,20.05227 -0.94088,0.77311 -1.10329,1.09298 -0.36092,0.71082 1.07816,-0.55502 1.12888,-0.2821 0.25203,1.3563 -2.72876,5.09874 -11.69161,8.40174 -16.8518,6.21023 z m 4.30029,-0.93864 c -0.31226,-0.50524 0.72294,-1.20211 2.30044,-1.54859 6.2158,-1.36521 11.56482,-11.37591 10.80467,-20.22095 -0.31155,-3.62518 -0.94469,-4.86345 -3.27086,-6.397 -5.51376,-3.63498 -12.11678,-1.33054 -15.16331,5.29197 -0.94668,2.05788 -2.39623,3.7601 -3.22123,3.78271 -0.95398,0.0262 -1.10805,0.30855 -0.42325,0.7758 0.59221,0.40408 1.10314,3.1258 1.1354,6.04826 0.044,3.98563 0.58942,5.87853 2.1824,7.57419 1.16806,1.24334 1.79584,2.58851 1.39508,2.98928 -0.40077,0.40077 0.0451,0.43174 0.99085,0.0688 1.18641,-0.45527 1.71952,-0.16162 1.71952,0.94715 0,0.88385 0.47656,1.60699 1.05902,1.60699 0.58246,0 0.80353,-0.41338 0.49127,-0.91863 z M 298.12756,161.25 c 1.24387,-1.58606 1.2085,-1.62143 -0.37756,-0.37756 -1.66575,1.30637 -2.19548,2.12756 -1.37244,2.12756 0.20765,0 0.99515,-0.7875 1.75,-1.75 z M 283,139 c 0,-0.55 -0.19844,-1 -0.44098,-1 -0.24254,0 -0.7191,0.45 -1.05902,1 -0.33992,0.55 -0.14148,1 0.44098,1 0.58246,0 1.05902,-0.45 1.05902,-1 z m 3.38156,-3.55194 c 0.34149,-0.88992 0.17385,-1.29132 -0.39301,-0.94098 -0.5437,0.33602 -0.98855,1.0344 -0.98855,1.55194 0,1.43843 0.71677,1.12146 1.38156,-0.61096 z m 77.54152,28.62886 c -3.7352,-3.73519 -3.9597,-8.76025 -0.56756,-12.70384 2.46568,-2.86653 5.21007,-3.59022 14.29933,-3.77072 2.83517,-0.0563 4.97526,-0.39271 4.75575,-0.74758 -0.21951,-0.35486 0.2733,-0.90324 1.09514,-1.21861 3.40384,-1.30618 0.52134,-9.63617 -3.33448,-9.63617 -0.64419,0 -1.05876,-0.50625 -0.92126,-1.125 0.1375,-0.61875 -0.37514,-1.35213 -1.1392,-1.62973 -0.85773,-0.31164 -1.1193,-0.068 -0.68372,0.63674 0.44896,0.72643 -0.42038,1.36665 -2.39086,1.76075 -1.77435,0.35487 -4.13456,1.94587 -5.52807,3.72645 -1.83742,2.34779 -2.71377,2.82517 -3.58568,1.95326 -1.33603,-1.33603 0.49215,-4.52372 4.00592,-6.98486 3.44604,-2.41371 11.13137,-2.58762 14.83436,-0.33569 3.97354,2.41645 4.73056,5.30483 3.25423,12.41628 -1.19797,5.7706 -1.9502,6.57212 -3.92958,4.18712 -1.20569,-1.45277 -8.31582,-2.78392 -7.45824,-1.39633 0.26888,0.43506 -1.00018,0.84844 -2.82014,0.91863 -6.15174,0.23727 -7.93862,0.60175 -9.12568,1.86145 -0.9494,1.00749 -0.7043,1.00857 1.23981,0.005 l 2.42314,-1.25026 -2.19066,2.78498 c -1.4479,1.8407 -1.97307,3.49459 -1.54892,4.87785 0.73978,2.41259 5.41343,7.53133 6.89329,7.54978 0.55,0.007 0.325,-0.42375 -0.5,-0.95691 -1.27336,-0.82291 -1.22808,-0.97169 0.29966,-0.98469 0.98981,-0.008 3.23981,-0.78395 5,-1.72339 1.76019,-0.93945 3.65034,-1.72695 4.20034,-1.75 0.55,-0.0231 1.0203,-0.49192 1.04511,-1.04192 0.0248,-0.55 0.3812,-2.67951 0.79198,-4.73225 0.6507,-3.25166 0.97442,-3.59016 2.5139,-2.62873 1.22602,0.76566 1.63767,1.9849 1.34452,3.98225 -0.23238,1.5833 -0.79002,2.87873 -1.2392,2.87873 -0.44919,0 -0.39811,1.45953 0.1135,3.2434 0.5116,1.78387 0.93019,3.35887 0.93019,3.5 0,0.14113 -0.9,0.2566 -2,0.2566 -1.33333,0 -2,-0.66667 -2,-2 0,-2.07031 -2.41251,-2.7596 -3.5,-1 -0.33992,0.55 -1.51803,1 -2.61803,1 -1.1,0 -1.75351,0.39884 -1.45223,0.88631 0.57001,0.9223 -2.5936,2.07639 -5.75666,2.10004 -1.00481,0.008 -3.14231,-1.30173 -4.75,-2.90943 z M 369.9682,136.75 c 0.0175,-0.4125 -0.79682,0.0375 -1.80957,1 -1.01276,0.9625 -1.64456,2.11443 -1.404,2.55984 0.44358,0.82133 3.15516,-2.18243 3.21357,-3.55984 z m 30.67017,28.75 c 0.31659,-0.825 0.0775,-1.5 -0.53138,-1.5 -0.60885,0 -1.10699,0.54643 -1.10699,1.21429 0,0.78902 -0.56329,0.65099 -1.6084,-0.39412 -1.26991,-1.26991 -1.46059,-2.68313 -0.90603,-6.71523 0.3863,-2.80875 1.06811,-4.88078 1.51514,-4.6045 0.44702,0.27627 0.58873,-0.35443 0.31489,-1.40157 C 397.6357,149.49891 399.90135,139 401.14233,139 c 0.55029,0 0.32553,-0.675 -0.49947,-1.5 -0.825,-0.825 -1.98215,-1.5 -2.57143,-1.5 C 397.48214,136 397,135.325 397,134.5 c 0,-0.84106 0.89238,-1.5 2.03138,-1.5 2.15109,0 2.61253,-0.73571 3.40629,-5.43086 0.48499,-2.86883 3.05618,-6.40862 3.9823,-5.4825 0.25718,0.25717 0.0342,2.39671 -0.49562,4.75453 -1.09251,4.8624 -0.64316,6.15883 2.13467,6.15883 1.06754,0 1.94098,0.675 1.94098,1.5 0,0.98716 -0.98763,1.5 -2.88871,1.5 -2.5338,0 -2.9838,0.46073 -3.66268,3.75 -0.42569,2.0625 -0.82685,4.2 -0.89147,4.75 -0.0646,0.55 -0.70936,4.27605 -1.43275,8.28012 -1.47607,8.17027 -1.10621,10.21988 1.84423,10.21988 1.11726,0 2.03138,0.45 2.03138,1 0,0.55 -0.70156,1 -1.55902,1 -0.85746,0 -1.2809,0.45 -0.94098,1 0.33992,0.55 -0.0694,1 -0.9096,1 -0.94705,0 -1.30887,-0.57008 -0.95203,-1.5 z m 32.68711,0.0409 c -4.79024,-2.08365 -6.57601,-5.56327 -6.5722,-12.80612 0.004,-6.90997 2.47478,-14.32987 4.38027,-13.15221 0.67534,0.41738 0.9101,0.29711 0.55178,-0.28267 -0.59426,-0.96153 2.21686,-4.08851 5.21918,-5.80561 0.93644,-0.53558 1.16908,-0.42234 0.69806,0.33978 -0.45656,0.73872 -0.15951,0.93317 0.83975,0.54972 0.85041,-0.32633 1.2964,-0.9975 0.9911,-1.49149 -0.9473,-1.53276 7.19058,-0.36866 9.91864,1.41884 1.74585,1.14393 2.37683,2.23182 1.94585,3.35492 -0.3998,1.04189 -0.24034,1.41642 0.42737,1.00376 0.58583,-0.36207 1.3373,0.0509 1.66994,0.91774 0.96448,2.51341 0.69923,12.23607 -0.35155,12.88548 -0.52598,0.32507 -0.70087,1.25673 -0.38866,2.07036 0.42381,1.10443 0.096,1.30228 -1.29367,0.78074 -1.65087,-0.61958 -1.70389,-0.50506 -0.46884,1.01283 0.76588,0.94126 1.10338,2.00052 0.75,2.35389 -0.35337,0.35338 -0.6425,0.0909 -0.6425,-0.58318 0,-0.67413 -0.45734,-0.94303 -1.01631,-0.59757 -0.55897,0.34546 -0.73989,1.07538 -0.40204,1.62203 0.87249,1.41172 -2.68179,5.04344 -4.32049,4.41461 -0.75077,-0.2881 -1.08959,-0.0781 -0.75292,0.46661 0.65497,1.05977 -3.53385,3.01233 -6.32334,2.94753 -0.92669,-0.0215 -3.11344,-0.66053 -4.85942,-1.41999 z m 10.18883,-3.54971 c 1.78771,-1.10487 3.80792,-3.35487 4.48935,-5 0.68144,-1.64514 1.66471,-2.99116 2.18505,-2.99116 0.52034,0 0.67244,-0.86213 0.338,-1.91584 -0.33444,-1.05372 -0.13976,-2.20527 0.43261,-2.55902 0.57238,-0.35375 1.04068,-0.0916 1.04068,0.58251 0,0.67413 0.28913,0.93656 0.6425,0.58318 0.35338,-0.35337 0.18705,-1.21587 -0.36961,-1.91666 -0.55666,-0.7008 -1.32561,-3.01195 -1.70877,-5.1359 -0.38317,-2.12395 -1.79184,-4.9569 -3.13039,-6.29545 C 446.09518,136.00427 445,134.47955 445,133.95455 445,133.42955 444.475,133 443.83333,133 c -0.64166,0 -0.86256,0.3041 -0.49088,0.67578 0.72811,0.72812 -6.31057,3.46196 -7.31502,2.84118 -0.71219,-0.44016 -5.55399,9.60025 -5.21165,10.80737 0.12857,0.45338 -0.2755,0.50958 -0.89794,0.12489 -0.78295,-0.48389 -0.96544,0.18659 -0.59217,2.17567 1.74597,9.30395 1.80947,10.57654 0.48811,9.78159 -1.06059,-0.63808 -1.07456,-0.49478 -0.0725,0.74357 0.68273,0.84368 0.90773,1.90221 0.5,2.35228 -0.40772,0.45008 -0.17148,0.49008 0.52499,0.0889 0.69647,-0.40119 0.94301,-1.25255 0.54786,-1.89192 -0.39516,-0.63937 0.55819,-0.15827 2.11854,1.0691 3.50624,2.75801 5.89409,2.81077 10.0816,0.22275 z M 452.5,142 c 0.33992,-0.55 0.14148,-1 -0.44098,-1 -0.58246,0 -1.05902,0.45 -1.05902,1 0,0.55 0.19844,1 0.44098,1 0.24254,0 0.7191,-0.45 1.05902,-1 z m -272.32615,23.25 c 2.794,-6.1539 7.09369,-13.20268 7.79073,-12.77189 0.49347,0.30498 1.22285,0.0276 1.62083,-0.61631 0.45192,-0.73122 0.29014,-0.90292 -0.4309,-0.45729 -1.6143,0.99769 -1.46372,0.28544 1.02079,-4.82843 1.19642,-2.46259 2.54126,-4.25125 2.98855,-3.97482 0.44728,0.27644 0.54525,-0.19576 0.21771,-1.04932 -0.34612,-0.90198 -0.0621,-1.55194 0.67812,-1.55194 0.70051,0 1.00555,-0.2681 0.67787,-0.59578 -0.32768,-0.32769 0.19361,-2.01519 1.15843,-3.75 0.96482,-1.73482 3.21686,-5.91277 5.00454,-9.28434 2.8465,-5.36847 3.59933,-6.11585 6.05923,-6.01532 2.64985,0.10829 2.84095,0.42544 3.37518,5.60162 0.38481,3.72844 0.18152,5.73142 -0.63432,6.25002 -0.81582,0.51858 -0.63974,0.76808 0.54939,0.77849 1.69291,0.0148 2.22072,2.45107 2.06148,9.51531 -0.0248,1.1 0.39528,2.28264 0.93349,2.6281 0.53822,0.34545 1.04079,3.56478 1.11681,7.15406 0.076,3.58927 0.46883,6.00663 0.87291,5.3719 0.40408,-0.63473 0.74158,0.7103 0.75,2.98895 0.0102,2.75836 -0.4826,4.33408 -1.4745,4.7147 -1.54057,0.59118 -1.76781,0.005 -3.04133,-7.8393 -0.78547,-4.83837 -2.12897,-7.52358 -3.75404,-7.5031 -0.77394,0.01 -0.67044,0.38874 0.28518,1.04425 1.06426,0.73004 -1.0012,0.92031 -7.11015,0.65499 l -8.61014,-0.37395 -2.7218,4.50613 c -1.89886,3.14369 -2.96158,4.11815 -3.51486,3.22293 -0.49401,-0.79933 -1.02656,-0.90536 -1.41231,-0.28121 -0.34059,0.55109 0.15305,1.29834 1.09698,1.66056 1.471,0.56448 1.5059,0.7916 0.24425,1.58947 -0.80958,0.51199 -1.07937,0.93779 -0.59953,0.94621 0.47985,0.008 0.31225,0.69031 -0.37244,1.51531 -1.24797,1.50371 -5.46596,2.1592 -4.82615,0.75 z M 189,155.39235 c 0,-0.82763 -1.94173,-1.29565 -2.38691,-0.57533 -0.28881,0.46731 0.13009,0.84965 0.9309,0.84965 0.8008,0 1.45601,-0.12345 1.45601,-0.27432 z M 203.83084,149 h 6.43084 l -0.81324,-3.75 c -0.44729,-2.0625 -0.91724,-6.45 -1.04433,-9.75 -0.1271,-3.3 -0.27002,-6.802 -0.3176,-7.78222 -0.12492,-2.57342 -4.24335,-3.88555 -5.74593,-1.83064 -0.64738,0.88534 -0.96438,1.82239 -0.70445,2.08233 0.25994,0.25993 0.89126,-0.18936 1.40293,-0.99843 0.51167,-0.80907 0.93031,-1.02104 0.93031,-0.47104 0,2.01157 -1.75896,3.74807 -3.01208,2.97361 -0.82447,-0.50955 -1.01734,-0.3798 -0.55278,0.37188 C 200.79695,130.48047 200.61492,131 200,131 c -0.61492,0 -0.81023,0.49804 -0.43402,1.10676 0.47683,0.77153 0.94441,0.69581 1.54371,-0.25 0.58467,-0.92273 0.86458,-0.97278 0.875,-0.15645 0.008,0.66017 -0.77219,1.64102 -1.73469,2.17966 -0.9625,0.53864 -1.5909,1.2553 -1.39645,1.59258 0.70054,1.21507 -2.10996,6.48701 -3.12411,5.86023 -0.62116,-0.38389 -0.73608,-0.15254 -0.28599,0.57572 0.42588,0.68909 -0.0438,2.09743 -1.08221,3.24483 -1.72919,1.91073 -1.73571,2.09968 -0.11351,3.28587 0.94665,0.6922 1.57349,1.49531 1.39298,1.78468 -0.18052,0.28936 0.14148,0.13237 0.71554,-0.34888 0.57406,-0.48125 3.93763,-0.875 7.47459,-0.875 z m 5.85227,-13.1875 c -0.31922,-0.79773 -0.55618,-0.56078 -0.60416,0.60417 -0.0434,1.05416 0.19292,1.64479 0.52522,1.3125 0.33229,-0.3323 0.36781,-1.1948 0.0789,-1.91667 z M 246.25,164.43518 C 245.5625,163.69226 245,162.61542 245,162.04221 245,161.46899 244.325,161 243.5,161 c -0.825,0 -1.5,-0.45 -1.5,-1 0,-0.55 0.40114,-1 0.89142,-1 1.38873,0 4.01216,-7.40058 5.31342,-14.98895 0.64985,-3.78966 1.47961,-6.70607 1.8439,-6.48093 0.36429,0.22515 0.50028,-0.81453 0.30221,-2.31038 -0.19808,-1.49586 -0.0893,-2.13846 0.2417,-1.428 0.49184,1.05565 0.89244,1.05565 2.19183,0 1.37884,-1.12021 1.48734,-1.02615 0.81704,0.70826 -0.42512,1.1 -0.92824,3.125 -1.11805,4.5 -0.70317,5.09394 -2.58753,15.66963 -3.76722,21.14297 -0.99154,4.60038 -1.4472,5.39341 -2.46625,4.29221 z m 2.43311,-13.62268 c -0.31922,-0.79773 -0.55618,-0.56078 -0.60416,0.60417 -0.0434,1.05416 0.19292,1.64479 0.52522,1.3125 0.33229,-0.3323 0.36781,-1.1948 0.0789,-1.91667 z m 60.67954,13.4375 c 0.27358,-0.9625 1.73831,-8.0983 3.25496,-15.85733 2.43156,-12.43963 2.9718,-14.0513 4.56997,-13.63337 0.99683,0.26068 1.81242,1.09648 1.81242,1.85733 0,2.03548 1.05409,1.70573 4.20876,-1.31663 4.67923,-4.48299 11.0843,-3.46231 13.12661,2.09181 0.28785,0.78282 0.95905,0.73695 2.28606,-0.15623 6.59955,-4.442 8.08871,-5.22849 9.90606,-5.23184 3.83576,-0.007 6.47251,2.7982 6.47251,6.88618 0,4.72365 -2.05458,15.19155 -2.88335,14.6904 -0.33916,-0.20509 -0.66048,1.79392 -0.71406,4.44223 -0.0598,2.95547 -0.71103,5.42875 -1.68624,6.40396 -3.32001,3.32001 -3.20382,0.26272 0.67545,-17.77164 0.80983,-3.76482 1.22503,-7.48982 0.92266,-8.27778 -1.53885,-4.01019 -7.24358,-3.5718 -12.22571,0.93952 -1.32619,1.20087 -2.04154,1.50839 -1.58968,0.68339 0.45187,-0.825 0.44027,-1.15333 -0.0258,-0.72963 -0.46605,0.42371 -0.949,1.54871 -1.07323,2.5 -0.68754,5.26504 -2.89126,14.80113 -3.52283,15.24422 -0.40341,0.28303 -0.69493,1.18303 -0.64782,2 0.25173,4.3653 -0.30725,7.41088 -1.12367,6.12226 -0.72914,-1.15087 -0.93903,-1.15087 -1.34778,0 -0.26628,0.74973 -0.73756,1.13385 -1.04727,0.8536 -0.30972,-0.28026 0.0622,-3.43026 0.82654,-7 0.76432,-3.56975 1.69179,-9.92965 2.06104,-14.13311 0.62949,-7.16587 0.53609,-7.71507 -1.49725,-8.80327 -1.77965,-0.95245 -2.96842,-0.76118 -6.62776,1.06639 -2.45252,1.22485 -4.23633,2.4498 -3.96402,2.72212 0.27232,0.27231 -0.29336,1.36638 -1.25706,2.43126 -0.9637,1.06487 -1.62003,2.11932 -1.45851,2.34321 0.16153,0.22389 -0.19667,2.08914 -0.79598,4.14501 -0.59932,2.05587 -1.31326,5.98794 -1.58655,8.73794 -0.27543,2.77158 -1.16992,5.51209 -2.00701,6.149 -1.18619,0.90252 -1.23062,1.26099 -0.20713,1.67105 0.71665,0.28713 0.26018,0.55758 -1.01439,0.601 -1.74693,0.0595 -2.19494,-0.35183 -1.81996,-1.67105 z m 38.77406,-31.03776 c -0.72144,-0.24048 -1.78716,0.0382 -2.36826,0.61931 -0.74207,0.74207 -0.35164,0.87221 1.31171,0.43724 1.3522,-0.35361 1.8055,-0.8069 1.05655,-1.05655 z M 412,164.33987 c 0,-2.98496 5.2368,-27.92028 6.07607,-28.93153 0.49862,-0.6008 0.5867,-1.41224 0.19573,-1.8032 -0.39096,-0.39097 0.063,-0.41392 1.00868,-0.051 1.8647,0.71555 2.38805,3.44586 0.6605,3.44586 -0.58246,0 -0.79275,0.43082 -0.46732,0.95738 0.73755,1.19338 -1.48638,14.19238 -2.65376,15.51137 -0.48668,0.54988 -0.63262,-0.53108 -0.33754,-2.5 0.51413,-3.43051 0.50911,-3.43594 -0.45522,-0.49272 -0.63267,1.93099 -0.63306,3.31805 -10e-4,3.95 1.32791,1.32791 1.23351,4.57397 -0.13302,4.57397 -0.64141,0 -0.82678,-0.73601 -0.44075,-1.75 0.48186,-1.26571 0.36281,-1.44914 -0.43017,-0.66284 -0.79521,0.7885 -0.79434,1.88166 0.003,3.9792 0.77577,2.04042 0.78488,2.99694 0.0309,3.24825 -0.58774,0.19592 -0.86061,0.69278 -0.60638,1.10413 0.25423,0.41136 -0.19296,0.74793 -0.99377,0.74793 -0.8008,0 -1.45601,-0.59706 -1.45601,-1.3268 z M 460.389,163.5 c 1.13409,-8.81797 4.01688,-23.36718 4.56311,-23.0296 0.34645,0.21412 0.44557,-1.26663 0.22027,-3.29055 l -0.40964,-3.67985 2.17014,2.4624 c 1.81464,2.05903 2.44836,2.26143 3.86863,1.23558 5.48656,-3.96292 8.0199,-5.18926 10.69849,-5.17893 2.30391,0.009 2.65195,0.2365 1.5,0.98095 -1.34942,0.87206 -0.72547,1.43034 1.25,1.11842 0.4125,-0.0651 0.75,0.35814 0.75,0.9406 0,0.58246 0.40285,0.81004 0.89522,0.50574 1.19771,-0.74023 2.12081,1.87638 2.03449,5.76703 -0.0611,2.75539 -0.1938,2.90761 -1.01826,1.16821 -0.68712,-1.44967 -0.81063,-0.69296 -0.44884,2.75 0.27452,2.6125 0.17024,4.75 -0.23174,4.75 -0.40198,0 -0.79323,1.2375 -0.86944,2.75 -0.19762,3.92186 -1.41147,11.52195 -1.98965,12.45747 -0.93346,1.51037 -3.37178,0.78412 -3.37178,-1.00429 0,-0.98825 0.92224,-6.02236 2.04942,-11.18692 2.48672,-11.39373 2.29323,-15.05298 -0.87911,-16.6254 -3.73263,-1.85014 -8.43318,0.1615 -11.52718,4.93316 -1.45372,2.24197 -2.64313,4.85968 -2.64313,5.81713 0,0.95745 -0.45165,2.01995 -1.00367,2.36112 -0.55202,0.34116 -0.74062,1.83022 -0.41912,3.30902 0.45729,2.10333 0.34787,2.36213 -0.50256,1.18871 -0.86584,-1.19467 -1.04863,-0.88935 -0.898,1.5 0.36117,5.72899 -0.15826,8.5 -1.59332,8.5 -0.77916,0 -1.67845,0.5625 -1.99841,1.25 -0.31997,0.6875 -0.40813,-0.1 -0.19592,-1.75 z M 464,158 c 0,-0.55 -0.19844,-1 -0.44098,-1 -0.24254,0 -0.7191,0.45 -1.05902,1 -0.33992,0.55 -0.14148,1 0.44098,1 0.58246,0 1.05902,-0.45 1.05902,-1 z m 3.5,-24 c -0.33992,-0.55 -0.14148,-1 0.44098,-1 0.58246,0 1.05902,0.45 1.05902,1 0,0.55 -0.19844,1 -0.44098,1 -0.24254,0 -0.7191,-0.45 -1.05902,-1 z M 419.71429,122.71429 C 420.18689,120.24202 424,119.4048 424,121.7733 c 0,0.7396 -0.44485,1.0698 -0.98855,0.73378 -0.56686,-0.35034 -0.7345,0.0511 -0.39301,0.94098 0.41392,1.07865 -0.005,1.55194 -1.37278,1.55194 -1.5111,0 -1.86682,-0.53094 -1.53137,-2.28571 z M 256,105.94098 c 0,-2.05762 0.37794,-2.82544 1.15451,-2.34549 0.74825,0.46245 0.8816,0.27195 0.37895,-0.54135 C 256.3464,101.13343 264.12563,63 265.70452,63 266.41703,63 267,63.9 267,65 c 0,2.729311 2.17009,2.512302 5,-0.5 3.21594,-3.423207 7.15811,-3.255571 10.96552,0.466296 C 285.93399,67.868065 286.99003,71 285,71 c -0.55,0 -1,0.45 -1,1 0,0.55 0.5625,0.8875 1.25,0.75 0.71885,-0.14377 1.21965,0.70607 1.17857,2 -0.24036,7.57147 -0.52177,9.310433 -1.41712,8.757079 -0.54759,-0.338431 -0.74497,0.02379 -0.44249,0.812044 0.30034,0.78265 -0.18696,2.156022 -1.08288,3.051938 C 282.59017,88.266978 282.18332,89 282.58197,89 c 0.39866,0 -0.89689,1.575 -2.879,3.5 -4.42054,4.293168 -9.43319,4.777405 -12.93955,1.25 -2.77367,-2.790323 -7.71692,-5.603828 -5.8111,-3.307454 0.95218,1.147309 0.86328,3.010504 -0.41783,8.757414 -0.89504,4.01502 -1.68145,7.86254 -1.74758,8.55004 C 258.52035,110.52109 256,108.8851 256,105.94098 Z M 260,98 c 0,-0.55 -0.19844,-1 -0.44098,-1 -0.24254,0 -0.7191,0.45 -1.05902,1 -0.33992,0.55 -0.14148,1 0.44098,1 C 259.52344,99 260,98.55 260,98 Z m 15.70678,-4.559023 c 0.95274,0.365601 1.42102,0.353493 1.04062,-0.02691 -0.3804,-0.380399 0.40899,-1.999644 1.75418,-3.598321 3.20972,-3.814529 4.95317,-10.4762 4.60911,-17.611204 C 282.96323,69.146512 278.68674,65 275.68031,65 c -1.32582,0 -3.53602,0.88526 -4.91154,1.967245 -1.37552,1.081985 -2.71121,1.756985 -2.96819,1.5 -0.25699,-0.256985 -0.5213,0.09525 -0.58736,0.782755 -0.36896,3.839751 -3.44156,12.417383 -4.81115,13.431051 -1.43065,1.058863 -1.37881,1.316528 0.50109,2.490547 1.15326,0.720222 2.09684,1.917771 2.09684,2.661219 0,2.060682 3.35895,5.880866 4.76016,5.413797 C 270.44207,93.01931 271,93.375933 271,94.039111 c 0,0.928244 0.34232,0.921674 1.48727,-0.02854 0.81799,-0.678876 2.26677,-0.935193 3.21951,-0.569592 z m 8.41529,-26.115974 c -1.17884,-2.027217 -1.46351,-1.378356 -0.49853,1.136338 0.34294,0.893703 0.83419,1.414259 1.09166,1.15679 0.25747,-0.257469 -0.009,-1.289377 -0.59313,-2.293128 z M 232,95.5 c 0,-0.825 -0.70156,-1.5 -1.55902,-1.5 -0.85746,0 -1.28408,0.444846 -0.94806,0.988546 0.33725,0.545678 -0.0213,0.745917 -0.80039,0.446962 -3.48639,-1.337853 -5.06031,-9.01127 -2.73827,-13.350036 1.60627,-3.001349 5.07032,-4.654565 6.1576,-2.938717 0.66123,1.043482 0.86102,0.94152 0.87283,-0.445436 0.0134,-1.569471 0.71619,-1.73858 5.51531,-1.327045 3.03459,0.260223 5.5,0.05792 5.5,-0.451318 C 244,76.41533 244.69399,76 245.54221,76 c 2.8519,0 4.2488,-2.241914 3.34987,-5.376281 -0.45877,-1.599655 -0.64197,-3.219396 -0.40709,-3.599425 0.23487,-0.380028 -0.11567,-0.749388 -0.77898,-0.820799 -0.6633,-0.07141 -3.32202,-0.427512 -5.90826,-0.791337 -4.27503,-0.601399 -4.96669,-0.400322 -7.61276,2.213171 -3.615,3.570487 -6.85923,4.503011 -5.25817,1.511414 1.76744,-3.302502 6.18579,-6.235779 8.35554,-5.547126 1.30098,0.412915 1.73616,0.249369 1.28385,-0.482483 C 238.12443,62.392316 238.93695,62 240.8592,62 c 3.9613,0 6.28083,0.964407 5.47101,2.274724 -0.40492,0.655175 -0.054,0.833251 0.91179,0.462654 0.87898,-0.337296 2.2717,0.172778 3.16404,1.158802 1.90204,2.101721 2.09373,3.504012 0.34396,2.516133 -1,-0.564578 -1,-0.436381 0,0.640983 1.80674,1.946517 1.53478,5.681456 -0.5,6.866605 -0.97121,0.565677 -1.19372,1.032814 -0.5,1.04969 1.43209,0.03484 1.70845,3.62904 0.34388,4.472388 -0.49837,0.308007 -0.68433,1.572065 -0.41325,2.809017 0.39695,1.811331 0.28316,1.957093 -0.58471,0.749004 -0.79173,-1.102096 -0.90958,0.157931 -0.44429,4.75 0.54583,5.386863 0.40646,6.25 -1.00917,6.25 C 246.73911,96 246,95.340833 246,94.535184 c 0,-0.805649 -0.80048,-1.893221 -1.77885,-2.416826 -1.35774,-0.726641 -2.3295,-0.379876 -4.10496,1.464816 -2.3561,2.447982 -4.18885,3.010837 -5.50809,1.691591 -0.39888,-0.398879 0.74009,-1.218605 2.53104,-1.821613 4.33835,-1.46071 9.00049,-7.337626 9.20218,-11.599924 0.17737,-3.748226 -0.46287,-3.907514 -9.33502,-2.322483 -5.92345,1.058238 -10.61445,5.464408 -9.00979,8.462733 0.60279,1.126321 0.78064,2.558084 0.39523,3.181697 -0.38542,0.623613 -0.28877,0.879217 0.21478,0.568009 0.50355,-0.311208 1.61346,-0.04324 2.46648,0.595492 C 232.97901,93.765872 234.29423,97 232.96862,97 232.43588,97 232,96.325 232,95.5 Z m -48.01789,-0.75 c -0.01,-0.6875 1.65468,-9.911668 3.69894,-20.498151 3.00197,-15.54609 4.01516,-19.200424 5.26789,-19 1.02799,0.164466 1.65777,-0.679237 1.86748,-2.501849 0.17403,-1.5125 -0.14934,-2.75 -0.71861,-2.75 -0.56927,0 -0.79349,0.629482 -0.49825,1.398849 0.29523,0.769368 0.0561,1.695925 -0.53139,2.059017 C 192.44073,53.845648 192,53.255533 192,52.027632 c 0,-2.077598 2.50643,-3.854535 3.72215,-2.63882 0.62577,0.625777 -2.0764,17.764823 -3.30606,20.969254 -1.41017,3.674853 2.34313,1.20139 11.24567,-7.411002 5.55342,-5.372428 9.82329,-8.765322 10.50259,-8.345492 0.65221,0.403089 0.87323,0.268252 0.51374,-0.313417 -0.93174,-1.507585 2.39578,-3.903496 5.70671,-4.109006 l 2.8848,-0.179059 -2.54253,1.999955 C 219.32868,53.10002 217.61802,54 216.9256,54 c -0.69241,0 -0.98556,0.273377 -0.65143,0.607505 0.93614,0.936139 -6.4111,8.425902 -7.56561,7.712373 -0.55967,-0.345892 -0.71511,-0.139496 -0.34543,0.458659 0.37351,0.604352 -0.63684,1.860789 -2.27402,2.827893 l -2.94616,1.74034 3.88444,7.204033 c 2.13644,3.962218 3.60428,7.484194 3.26186,7.826615 C 209.94683,82.719838 210.09464,83 210.61773,83 c 1.47386,0 4.62352,5.92894 4.00538,7.53978 -0.31076,0.809817 -0.0216,1.332422 0.66288,1.198224 0.6677,-0.130902 1.10151,0.324496 0.96401,1.011996 -0.1375,0.6875 0.2,1.25 0.75,1.25 0.55,0 1,0.424162 1,0.942582 0,0.801688 -3.90363,0.66063 -4.46165,-0.161222 -2.80106,-4.125413 -4.51999,-8.002055 -3.95413,-8.917631 0.4079,-0.660001 0.29509,-0.907169 -0.25804,-0.565321 -0.54056,0.334083 -1.77547,-1.189123 -2.74424,-3.384903 -1.48845,-3.373633 -1.55379,-4.257419 -0.42168,-5.702916 1.1776,-1.503566 1.1476,-1.5608 -0.24788,-0.472912 -1.32849,1.03567 -1.80491,0.83165 -2.91897,-1.25 -1.51423,-2.829363 -3.18681,-3.164494 -4.98427,-0.998687 -0.67967,0.818944 -1.74727,1.196797 -2.37245,0.839674 -0.62518,-0.357123 -0.79507,-0.273052 -0.37754,0.186824 0.82745,0.911372 -3.14476,5.673241 -4.19237,5.025785 -0.35337,-0.218397 -0.74184,0.807972 -0.86326,2.28082 -0.12142,1.472849 -0.58733,2.801391 -1.03537,2.952315 -0.44803,0.150925 -0.61807,1.613425 -0.37788,3.25 C 189.04516,89.761057 188.77644,91 188.14488,91 c -0.5985,0 -0.80691,-0.782093 -0.46632,-1.75 0.50269,-1.428561 0.36835,-1.520401 -0.73138,-0.5 -1.04781,0.972222 -1.08051,1.516667 -0.14718,2.45 0.66,0.66 1.16837,2.1225 1.12971,3.25 -0.0696,2.029516 -0.0789,2.030015 -0.92971,0.05 -0.7349,-1.710215 -0.86961,-1.746439 -0.92971,-0.25 -0.0791,1.970224 -2.06035,2.444611 -2.08818,0.5 z m 109.48024,-3.37988 c 1.28542,-9.164753 5.35222,-28.872698 5.54474,-26.87012 0.16575,1.724173 0.30977,1.655216 1.04424,-0.5 0.76236,-2.237035 0.83411,-2.131848 0.68212,1 -0.19704,4.060145 1.47462,4.276492 4.39145,0.568344 2.38272,-3.029138 7.78442,-4.014591 7.58626,-1.383991 C 312.62081,65.383778 311.7781,66 310.22818,66 c -1.60534,0 -2.11232,-0.394716 -1.60552,-1.25 0.40739,-0.6875 -1.47855,0.993051 -4.19098,3.734558 -2.71242,2.741507 -5.38168,4.846864 -5.93168,4.678571 -0.55,-0.168292 -0.4375,0.266157 0.25,0.965442 1.648,1.676253 1.61759,3.421388 -0.0357,2.04927 -0.96972,-0.80479 -1.28572,-0.60715 -1.28572,0.804137 0,1.029151 0.35357,1.652665 0.78572,1.385586 0.43214,-0.267079 0.78571,0.189402 0.78571,1.014402 0,0.825 -0.45,1.778115 -1,2.118034 -0.55,0.339919 -1,0.06648 -1,-0.60765 0,-0.674126 -0.28913,-0.936558 -0.6425,-0.583183 -0.35338,0.353376 -0.10178,1.294028 0.5591,2.090338 0.93612,1.127959 0.92993,2.403676 -0.028,5.774166 -0.67628,2.379481 -1.26538,4.96259 -1.3091,5.740241 -0.0437,0.777652 -0.69166,1.619206 -1.43986,1.87012 -1.08248,0.363019 -1.22083,-0.538599 -0.67729,-4.413912 z m 22.61023,1.995021 c -3.00372,-3.818614 -2.78335,-9.745279 0.48384,-13.012472 1.62907,-1.629069 3.26197,-2.371919 4.50138,-2.047804 1.20558,0.315265 1.6974,0.108058 1.29375,-0.545064 -0.43712,-0.707279 0.88264,-0.880795 4.01442,-0.527798 2.5661,0.289236 4.91008,0.13036 5.20885,-0.353059 C 331.87359,76.395525 333.00112,76 334.08046,76 c 1.12761,0 2.45145,-1.073302 3.112,-2.52305 0.9742,-2.138139 0.81139,-2.980473 -1.06722,-5.521423 -1.21924,-1.649106 -1.90518,-3.551233 -1.52431,-4.226951 0.52794,-0.936657 0.37249,-0.931567 -0.65423,0.02142 -0.74068,0.6875 -2.77101,1.25 -4.51184,1.25 -1.74083,0 -4.31938,0.90792 -5.73011,2.017601 -3.67581,2.891395 -4.89206,0.400434 -1.30923,-2.68139 2.74563,-2.361691 8.34591,-3.34488 7.04282,-1.236443 -0.49424,0.799691 -0.11899,0.799691 1.37524,0 2.93416,-1.570313 3.65869,-1.414707 7.17003,1.539895 2.21038,1.859913 2.82384,2.952885 2.07673,3.7 -0.58319,0.583186 -1.02871,1.757837 -0.99005,2.610337 0.0498,1.098568 0.32059,0.967507 0.92971,-0.45 0.77422,-1.801701 0.8664,-1.739733 0.92971,0.625 0.11654,4.352197 -1.11829,9.187907 -1.98718,7.782018 -0.46621,-0.754344 -0.72897,-0.08895 -0.65922,1.66934 C 338.64529,89.701579 337.94457,96 336.56739,96 c -0.78794,0 -1.71826,-0.9 -2.06739,-2 -0.79797,-2.514175 -2.14573,-2.513372 -6.27417,0.0037 -4.72908,2.88332 -9.58356,2.628239 -12.15325,-0.638597 z m 13.22775,-1.386744 c 1.41353,-1.111881 3.14126,-1.899381 3.83941,-1.75 0.76271,0.163196 1.37527,-0.925807 1.53473,-2.728397 0.14595,-1.65 0.39141,-4.323809 0.54545,-5.941798 0.27657,-2.904948 0.21553,-2.942528 -4.87307,-3 -2.83424,-0.03201 -4.94518,0.279298 -4.69099,0.691798 0.2542,0.4125 -0.54788,0.75 -1.78239,0.75 C 320.65337,80 317,83.813276 317,87.174314 c 0,6.072197 7.14201,8.861619 12.30033,4.804083 z M 324.5,65 c 0.33992,-0.55 0.14148,-1 -0.44098,-1 C 323.47656,64 323,64.45 323,65 c 0,0.55 0.19844,1 0.44098,1 0.24254,0 0.7191,-0.45 1.05902,-1 z m 26.71445,28.388608 c -2.46955,-1.946147 -3.12594,-3.09213 -2.64287,-4.61414 0.42774,-1.34769 0.27241,-1.796081 -0.46445,-1.34068 C 347.47846,87.822331 347,87.444292 347,86.559017 347,85.666667 347.85524,85 349,85 c 1.28455,0 2,0.666667 2,1.863636 0,1.025 1.22382,3.087453 2.71959,4.583229 2.67037,2.670371 5.01113,2.929165 12.78041,1.413003 1.54875,-0.302236 1.61206,-6.044429 0.0917,-8.321493 C 365.84323,83.417269 363.04137,81.375 360.3654,80 c -2.67597,-1.375 -5.6529,-3.356354 -6.6154,-4.40301 -2.73378,-2.972803 -2.0653,-10.038947 0.8441,-8.922507 0.96724,0.371163 1.24143,0.0605 0.84907,-0.961992 -0.71212,-1.855736 1.13698,-3.200836 2.14904,-1.563292 0.43435,0.702787 -0.44965,2.137299 -2.1809,3.53906 l -2.91131,2.357236 2.5,1.95868 c 1.375,1.077274 5.28817,3.604101 8.69594,5.615173 3.40776,2.011071 6.45556,4.333078 6.77289,5.160016 0.49313,1.285075 0.33893,1.305984 -1.06128,0.143912 -1.43248,-1.188856 -1.58489,-1.112426 -1.2135,0.608556 0.2336,1.082492 0.9605,1.855668 1.61534,1.718168 1.70791,-0.35862 1.46861,3.908091 -0.36609,6.527494 C 368.58711,92.999872 367.03867,94 366.00231,94 c -1.03635,0 -2.16239,0.45 -2.50231,1 -1.28124,2.073083 -8.87387,1.077222 -12.28555,-1.611392 z M 369.07942,69.708903 C 367.85551,66.48977 366.0243,65.215055 362.073,64.831705 356.66781,64.3073 356.94784,62 362.41667,62 364.9375,62 367,62.45 367,63 c 0,0.55 0.49016,0.8875 1.08924,0.75 0.59909,-0.1375 2.05312,1.00915 3.23118,2.548111 1.71518,2.240636 1.87409,2.963642 0.7976,3.628949 -1.1223,0.693621 -1.11919,0.920369 0.0188,1.372942 0.94026,0.373925 0.81256,0.566595 -0.4116,0.621051 -0.97626,0.04343 -2.16666,-0.951852 -2.64583,-2.21215 z m -51.77901,-0.110118 c 0.54676,-1.640292 2.42028,-1.769029 3.01951,-0.207483 0.38896,1.013635 -0.046,1.429706 -1.38889,1.328549 -1.07537,-0.08101 -1.80915,-0.585485 -1.63062,-1.121066 z"
         id="path3" />
      <path
         style="fill:#767676;fill-opacity:1"
         d="m 486.15789,184 c 0,-1.375 0.22698,-1.9375 0.50439,-1.25 0.27741,0.6875 0.27741,1.8125 0,2.5 -0.27741,0.6875 -0.50439,0.125 -0.50439,-1.25 z M 485,179.94098 c 0,-0.58246 0.45,-0.7809 1,-0.44098 0.55,0.33992 1,0.81648 1,1.05902 0,0.24254 -0.45,0.44098 -1,0.44098 -0.55,0 -1,-0.47656 -1,-1.05902 z M 130.981,168.47711 c -1.05678,-1.27335 -0.99492,-1.41968 0.37756,-0.89301 0.90279,0.34643 1.64144,1.03173 1.64144,1.52289 0,1.28596 -0.57887,1.10536 -2.019,-0.62988 z M 264,166 c -1.08997,-0.70439 -1.14217,-0.97356 -0.19098,-0.98469 0.71996,-0.008 1.05531,-0.42581 0.74523,-0.92753 -0.66872,-1.08201 2.04155,-0.82531 3.16681,0.29994 0.42842,0.42842 0.10394,0.62895 -0.72106,0.44561 -0.825,-0.18333 -1.3875,0.22917 -1.25,0.91667 0.2978,1.48898 0.19083,1.50426 -1.75,0.25 z m -18.5,-1 c -0.33992,-0.55 -0.14148,-1 0.44098,-1 0.58246,0 1.05902,0.45 1.05902,1 0,0.55 -0.19844,1 -0.44098,1 -0.24254,0 -0.7191,-0.45 -1.05902,-1 z m 40.5,-0.059 c 0,-0.58246 0.45,-0.7809 1,-0.44098 0.55,0.33992 1,0.81648 1,1.05902 0,0.24254 -0.45,0.44098 -1,0.44098 -0.55,0 -1,-0.47656 -1,-1.05902 z m 83.50708,0.0705 c -0.35034,-0.56686 0.0511,-0.7345 0.94098,-0.39301 1.73242,0.66479 2.04939,1.38156 0.61096,1.38156 -0.51754,0 -1.21592,-0.44485 -1.55194,-0.98855 z M 399,165 c 0,-0.55 0.45,-1 1,-1 0.55,0 1,0.45 1,1 0,0.55 -0.45,1 -1,1 -0.55,0 -1,-0.45 -1,-1 z m 62,0 c 0,-0.55 0.47656,-1 1.05902,-1 0.58246,0 0.7809,0.45 0.44098,1 -0.33992,0.55 -0.81648,1 -1.05902,1 C 461.19844,166 461,165.55 461,165 Z m -181.32538,-2.52579 c -0.37175,-1.08582 -0.94729,-2.64921 -1.27898,-3.47421 -0.33168,-0.825 0.15224,-0.47591 1.07539,0.77576 0.92316,1.25167 1.4987,2.81506 1.27898,3.47421 -0.22427,0.6728 -0.69594,0.33255 -1.07539,-0.77576 z M 296,162.62244 c 0,-0.20765 0.7875,-0.99515 1.75,-1.75 1.58606,-1.24387 1.62143,-1.2085 0.37756,0.37756 C 296.82119,162.91575 296,163.44548 296,162.62244 Z m 134.32466,-0.28043 c 0.36189,-0.3619 0.0994,-1.3744 -0.58334,-2.25 -1.09654,-1.40633 -1.0385,-1.433 0.49767,-0.2287 1.56442,1.22645 1.58594,3.13669 0.0353,3.13669 -0.33421,0 -0.31156,-0.2961 0.0503,-0.65799 z m -15.67528,-2.57476 c -0.32113,-1.22802 -0.26111,-2.55401 0.13337,-2.94666 0.39449,-0.39264 0.81163,0.6121 0.92699,2.23276 0.24893,3.49716 -0.24547,3.83002 -1.06036,0.7139 z m -229.50614,0.34244 c -0.94581,-0.5993 -1.02153,-1.06688 -0.25,-1.54371 C 185.50196,158.18977 186,158.38508 186,159 c 0,0.61492 0.51953,0.79695 1.15451,0.40451 0.7153,-0.44208 0.88306,-0.27432 0.44098,0.44098 -0.84269,1.3635 -0.73555,1.35196 -2.45225,0.2642 z M 261,160.05902 c 0,-0.51754 0.44485,-1.21592 0.98855,-1.55194 0.56686,-0.35034 0.7345,0.0511 0.39301,0.94098 C 261.71677,161.18048 261,161.49745 261,160.05902 Z m 188.65619,-0.8063 C 449.27734,158.63973 449.43206,157.85101 450,157.5 c 0.56794,-0.35101 0.77373,-1.0571 0.45729,-1.5691 -0.31643,-0.51199 -0.0988,-0.9309 0.48369,-0.9309 1.20513,0 1.23733,0.68571 0.16124,3.43362 -0.4841,1.23619 -1.00566,1.53163 -1.44603,0.8191 z m -235.57724,-1.83605 c 0.048,-1.16495 0.28494,-1.4019 0.60416,-0.60417 0.28887,0.72187 0.25335,1.58437 -0.0789,1.91667 -0.3323,0.33229 -0.56864,-0.25834 -0.52522,-1.3125 z M 462.5,158 c 0.33992,-0.55 0.81648,-1 1.05902,-1 0.24254,0 0.44098,0.45 0.44098,1 0,0.55 -0.47656,1 -1.05902,1 -0.58246,0 -0.7809,-0.45 -0.44098,-1 z m -275.88691,-3.18298 c 0.28881,-0.4673 0.94401,-0.59075 1.45601,-0.27431 1.30838,0.80862 1.16106,1.12396 -0.52511,1.12396 -0.80081,0 -1.21971,-0.38234 -0.9309,-0.84965 z m 277.46586,-0.40035 c 0.048,-1.16495 0.28494,-1.4019 0.60416,-0.60417 0.28887,0.72187 0.25335,1.58437 -0.0789,1.91667 -0.33229,0.33229 -0.56864,-0.25834 -0.52522,-1.3125 z M 110,154 c 0,-0.55 0.47656,-1 1.05902,-1 0.58246,0 0.7809,0.45 0.44098,1 -0.33992,0.55 -0.81648,1 -1.05902,1 C 110.19844,155 110,154.55 110,154 Z m 305.60155,0.16432 c -0.28406,-0.45963 -0.12,-2.14713 0.36459,-3.75 0.85103,-2.81497 0.87515,-2.78655 0.70746,0.83368 -0.18509,3.99615 -0.26699,4.21893 -1.07205,2.91632 z m -186.72039,-4.3829 c 0.46036,-2.77692 0.60121,-2.91777 0.91609,-0.91608 0.20464,1.30093 -0.0402,2.77757 -0.544,3.28141 -0.55478,0.55478 -0.70153,-0.37811 -0.37209,-2.36533 z m 19.19779,1.63525 c 0.048,-1.16495 0.28494,-1.4019 0.60416,-0.60417 0.28887,0.72187 0.25335,1.58437 -0.0789,1.91667 -0.3323,0.33229 -0.56864,-0.25834 -0.52522,-1.3125 z M 364,152.57037 c 0,-0.275 0.9,-0.98167 2,-1.57037 1.1,-0.5887 2,-0.84537 2,-0.57037 0,0.275 -0.9,0.98167 -2,1.57037 -1.1,0.5887 -2,0.84537 -2,0.57037 z m 20.50708,-0.55892 c -0.35034,-0.56686 0.0511,-0.7345 0.94098,-0.39301 1.73242,0.66479 2.04939,1.38156 0.61096,1.38156 -0.51754,0 -1.21592,-0.44485 -1.55194,-0.98855 z M 125.15789,150 c 0,-1.375 0.22698,-1.9375 0.50439,-1.25 0.27741,0.6875 0.27741,1.8125 0,2.5 -0.27741,0.6875 -0.50439,0.125 -0.50439,-1.25 z M 194,151.40964 c 0,-0.0906 0.76138,-0.78235 1.69196,-1.5372 0.93058,-0.75484 1.37777,-0.84837 0.99377,-0.20785 -0.38401,0.64052 -0.13289,1.38216 0.55804,1.64808 0.69093,0.26592 0.24373,0.43359 -0.99377,0.37261 -1.2375,-0.061 -2.25,-0.18503 -2.25,-0.27564 z M 208,151 c -0.90129,-0.58246 -1.02463,-0.97549 -0.30902,-0.98469 0.65504,-0.008 1.4691,0.43469 1.80902,0.98469 0.7673,1.24153 0.42112,1.24153 -1.5,0 z m 54.5,0 c 0.33992,-0.55 0.81648,-1 1.05902,-1 0.24254,0 0.44098,0.45 0.44098,1 0,0.55 -0.47656,1 -1.05902,1 -0.58246,0 -0.7809,-0.45 -0.44098,-1 z m 189.06429,-1.70687 c -0.54268,-1.4252 -0.42782,-1.54006 0.5598,-0.5598 0.68342,0.67834 0.99067,1.48524 0.68278,1.79313 -0.30789,0.30789 -0.86705,-0.24711 -1.24258,-1.23333 z M 429,148.55902 c 0,-0.79254 0.40803,-1.69316 0.90674,-2.00138 0.49871,-0.30822 0.67122,0.34022 0.38337,1.44098 C 429.6795,150.33361 429,150.62877 429,148.55902 Z m -166,-0.61804 c 0,-0.58246 0.45,-0.7809 1,-0.44098 0.55,0.33992 1,0.81648 1,1.05902 0,0.24254 -0.45,0.44098 -1,0.44098 -0.55,0 -1,-0.47656 -1,-1.05902 z m -70,-0.88196 c 0,-0.51754 0.44485,-1.21592 0.98855,-1.55194 0.56686,-0.35034 0.7345,0.0511 0.39301,0.94098 C 193.71677,148.18048 193,148.49745 193,147.05902 Z M 486.232,144 c 0,-1.925 0.2058,-2.7125 0.45733,-1.75 0.25152,0.9625 0.25152,2.5375 0,3.5 -0.25153,0.9625 -0.45733,0.175 -0.45733,-1.75 z M 228,145.62244 c 0,-0.20765 0.6853,-0.9463 1.52289,-1.64144 1.27335,-1.05678 1.41968,-0.99492 0.89301,0.37756 -0.53789,1.40173 -2.4159,2.38422 -2.4159,1.26388 z m 35.77283,-2.21439 c 0.33219,-1.73778 0.75033,-2.1796 1.2688,-1.34068 0.84754,1.37133 0.18976,3.93263 -1.00995,3.93263 -0.41488,0 -0.53137,-1.16638 -0.25885,-2.59195 z M 451,142 c 0,-0.55 0.47656,-1 1.05902,-1 0.58246,0 0.7809,0.45 0.44098,1 -0.33992,0.55 -0.81648,1 -1.05902,1 C 451.19844,143 451,142.55 451,142 Z m -84.24537,-1.69016 c -0.24056,-0.44541 0.39124,-1.59734 1.404,-2.55984 2.14553,-2.03907 2.398,-1.06806 0.40557,1.55984 -0.75471,0.99541 -1.56902,1.44541 -1.80957,1 z M 281.5,139 c 0.33992,-0.55 0.81648,-1 1.05902,-1 0.24254,0 0.44098,0.45 0.44098,1 0,0.55 -0.47656,1 -1.05902,1 -0.58246,0 -0.7809,-0.45 -0.44098,-1 z M 89.542705,138.0691 c -0.316431,-0.512 -0.192988,-1.1672 0.274316,-1.45601 0.467305,-0.28881 0.849646,0.13009 0.849646,0.9309 0,1.68617 -0.315337,1.83349 -1.123962,0.52511 z m 119.536245,-1.65243 c 0.048,-1.16495 0.28494,-1.4019 0.60416,-0.60417 0.28887,0.72187 0.25335,1.58437 -0.0789,1.91667 -0.3323,0.33229 -0.56864,-0.25834 -0.52522,-1.3125 z m -81,-1 c 0.048,-1.16495 0.28494,-1.4019 0.60416,-0.60417 0.28887,0.72187 0.25335,1.58437 -0.0789,1.91667 -0.3323,0.33229 -0.56864,-0.25834 -0.52522,-1.3125 z M 285,136.05902 c 0,-0.51754 0.44485,-1.21592 0.98855,-1.55194 0.56686,-0.35034 0.7345,0.0511 0.39301,0.94098 C 285.71677,137.18048 285,137.49745 285,136.05902 Z m 12.54271,0.0101 c -0.31644,-0.512 -0.19299,-1.1672 0.27431,-1.45601 0.46731,-0.28881 0.84965,0.13009 0.84965,0.9309 0,1.68617 -0.31534,1.83349 -1.12396,0.52511 z M 466,134.44098 c 0,-0.85746 0.45,-1.2809 1,-0.94098 0.55,0.33992 1,1.04148 1,1.55902 0,0.51754 -0.45,0.94098 -1,0.94098 -0.55,0 -1,-0.70156 -1,-1.55902 z m 19,0.66667 c 0,-0.67413 -0.41891,-0.96679 -0.9309,-0.65036 -0.512,0.31644 -1.21356,0.11799 -1.55902,-0.44098 -0.34546,-0.55897 0.0469,-1.01631 0.87189,-1.01631 1.67748,0 3.14415,1.80721 2.21817,2.7332 C 485.27006,136.06327 485,135.78178 485,135.10765 Z M 231.5,134 c 0.33992,-0.55 0.81648,-1 1.05902,-1 0.24254,0 0.44098,0.45 0.44098,1 0,0.55 -0.47656,1 -1.05902,1 -0.58246,0 -0.7809,-0.45 -0.44098,-1 z m 19.5,0 c 0,-0.55 0.47656,-1 1.05902,-1 0.58246,0 0.7809,0.45 0.44098,1 -0.33992,0.55 -0.81648,1 -1.05902,1 C 251.19844,135 251,134.55 251,134 Z m 20.5,0 c 0.33992,-0.55 0.81648,-1 1.05902,-1 0.24254,0 0.44098,0.45 0.44098,1 0,0.55 -0.47656,1 -1.05902,1 -0.58246,0 -0.7809,-0.45 -0.44098,-1 z m 44.5,0 c 0,-0.55 0.42344,-1 0.94098,-1 0.51754,0 1.2191,0.45 1.55902,1 0.33992,0.55 -0.0835,1 -0.94098,1 C 316.70156,135 316,134.55 316,134 Z m 29.76845,-0.16845 c 0.5811,-0.5811 1.64682,-0.85979 2.36826,-0.61931 0.74895,0.24965 0.29565,0.70294 -1.05655,1.05655 -1.66335,0.43497 -2.05378,0.30483 -1.31171,-0.43724 z m 31.79631,0.27323 c -0.3043,-0.49236 0.0441,-1.12446 0.77432,-1.40465 0.73017,-0.2802 1.32759,0.12265 1.32759,0.89521 0,1.57457 -1.25555,1.87888 -2.10191,0.50944 z m 41.16857,-0.22887 c 0.67834,-0.68342 1.48524,-0.99067 1.79313,-0.68278 0.30789,0.30789 -0.24711,0.86705 -1.23333,1.24258 -1.4252,0.54268 -1.54006,0.42782 -0.5598,-0.5598 z m 19,0 c 0.67834,-0.68342 1.48524,-0.99067 1.79313,-0.68278 0.30789,0.30789 -0.24711,0.86705 -1.23333,1.24258 -1.4252,0.54268 -1.54006,0.42782 -0.5598,-0.5598 z m 5.24767,-0.3988 c -1.05678,-1.27335 -0.99492,-1.41968 0.37756,-0.89301 0.90279,0.34643 1.64144,1.03173 1.64144,1.52289 0,1.28596 -0.57887,1.10536 -2.019,-0.62988 z M 199.5,132 c -0.33992,-0.55 -0.11492,-1 0.5,-1 0.61492,0 0.79695,-0.51953 0.40451,-1.15451 -0.43207,-0.6991 -0.27535,-0.8837 0.39731,-0.46797 0.61096,0.37759 0.85734,1.34712 0.54752,2.15451 -0.66385,1.72996 -1.01454,1.8187 -1.84934,0.46797 z M 76.564293,130.29313 c -0.542685,-1.4252 -0.427821,-1.54006 0.559795,-0.5598 0.683418,0.67834 0.990671,1.48524 0.682784,1.79313 -0.307887,0.30789 -0.867048,-0.24711 -1.242579,-1.23333 z m 125.639377,-4.24765 c 0.67134,-1.07499 1.36075,-1.8144 1.53201,-1.64313 0.59277,0.59277 -0.95337,3.59765 -1.85114,3.59765 -0.49582,0 -0.35221,-0.87953 0.31913,-1.95452 z M 132,113.05902 c 0,-0.51754 0.44485,-1.21592 0.98855,-1.55194 0.56686,-0.35034 0.7345,0.0511 0.39301,0.94098 C 132.71677,114.18048 132,114.49745 132,113.05902 Z M 133.5,107 c 0.33992,-0.55 0.81648,-1 1.05902,-1 0.24254,0 0.44098,0.45 0.44098,1 0,0.55 -0.47656,1 -1.05902,1 -0.58246,0 -0.7809,-0.45 -0.44098,-1 z m 125,-9 c 0.33992,-0.55 0.81648,-1 1.05902,-1 0.24254,0 0.44098,0.45 0.44098,1 0,0.55 -0.47656,1 -1.05902,1 -0.58246,0 -0.7809,-0.45 -0.44098,-1 z m -72.42105,-3.583333 c 0.048,-1.164943 0.28494,-1.4019 0.60416,-0.604167 0.28887,0.721875 0.25335,1.584375 -0.0789,1.916667 -0.3323,0.332291 -0.56864,-0.258334 -0.52522,-1.3125 z M 229.5,95 c -0.33992,-0.55 0.0835,-1 0.94098,-1 0.85746,0 1.55902,0.45 1.55902,1 0,0.55 -0.42344,1 -0.94098,1 -0.51754,0 -1.2191,-0.45 -1.55902,-1 z m 3.5,-0.05902 c 0,-0.582459 0.45,-0.780902 1,-0.440983 0.55,0.339919 1,0.816476 1,1.059017 C 235,95.801558 234.55,96 234,96 c -0.55,0 -1,-0.476558 -1,-1.059017 z m -46.55385,-4.028115 c -0.36954,-0.597923 -0.19401,-1.56501 0.39006,-2.149081 0.74927,-0.749265 1.01429,-0.429166 0.90007,1.087132 -0.1843,2.446552 -0.35007,2.583004 -1.29013,1.061949 z m 147.11814,-1.205996 c 0.37553,-0.986221 0.93469,-1.541221 1.24258,-1.233333 0.30789,0.307887 6.4e-4,1.114794 -0.68278,1.793128 -0.98762,0.980267 -1.10248,0.865403 -0.5598,-0.559795 z M 248.15789,86 c 0,-1.375 0.22698,-1.9375 0.50439,-1.25 0.27741,0.6875 0.27741,1.8125 0,2.5 -0.27741,0.6875 -0.50439,0.125 -0.50439,-1.25 z m 13.93903,-1.383217 c -0.88229,-1.0631 -0.81029,-1.512796 0.31112,-1.943122 0.99297,-0.381039 1.41233,0.06084 1.31272,1.383217 -0.1745,2.316523 -0.16787,2.314238 -1.62384,0.559905 z m 106.27248,-0.09653 c -0.84418,-2.199891 0.0836,-2.884244 1.53666,-1.133448 0.81795,0.985576 0.86038,1.639508 0.13544,2.087548 -0.5806,0.358826 -1.33304,-0.07052 -1.6721,-0.9541 z m -71.91052,-2.586785 c -0.36253,-0.586592 -0.44468,-1.281 -0.18255,-1.543128 0.26212,-0.262129 0.74306,0.21781 1.06875,1.066531 0.67618,1.762107 0.0999,2.072058 -0.8862,0.476597 z m -54.72555,-4.057557 c 0.67834,-0.683418 1.48524,-0.990671 1.79313,-0.682784 0.30789,0.307887 -0.24711,0.867048 -1.23333,1.242579 -1.4252,0.542685 -1.54006,0.427821 -0.5598,-0.559795 z M 297.42857,77 c 0,-1.295238 0.3381,-1.633333 0.98572,-0.985714 0.64761,0.647619 0.64761,1.323809 0,1.971428 C 297.76667,78.633333 297.42857,78.295238 297.42857,77 Z M 284,72 c 0,-0.55 0.47656,-1 1.05902,-1 0.58246,0 0.7809,0.45 0.44098,1 -0.33992,0.55 -0.81648,1 -1.05902,1 C 284.19844,73 284,72.55 284,72 Z m 55,-1.440983 c 0,-0.792541 0.40803,-1.693162 0.90674,-2.00138 0.49871,-0.308218 0.67122,0.340224 0.38337,1.440983 C 339.6795,72.333607 339,72.628767 339,70.559017 Z m 14.44615,0.353851 c -0.36954,-0.597923 -0.19401,-1.56501 0.39006,-2.149081 0.74927,-0.749265 1.01429,-0.429166 0.90007,1.087132 -0.1843,2.446552 -0.35007,2.583004 -1.29013,1.061949 z m -69.82261,-2.451527 c -0.96498,-2.514694 -0.68031,-3.163555 0.49853,-1.136338 0.58369,1.003751 0.8506,2.035659 0.59313,2.293128 -0.25747,0.257469 -0.74872,-0.263087 -1.09166,-1.15679 z m 35.94075,-0.168213 c -0.54268,-1.425198 -0.42782,-1.540062 0.5598,-0.559795 0.68342,0.678334 0.99067,1.485241 0.68278,1.793128 -0.30789,0.307888 -0.86705,-0.247112 -1.24258,-1.233333 z M 354,65.940983 c 0,-0.582459 0.45,-0.780902 1,-0.440983 0.55,0.339919 1,0.816476 1,1.059017 C 356,66.801558 355.55,67 355,67 c -0.55,0 -1,-0.476558 -1,-1.059017 z m -54.92105,-1.524316 c 0.048,-1.164943 0.28494,-1.4019 0.60416,-0.604167 0.28887,0.721875 0.25335,1.584375 -0.0789,1.916667 -0.33229,0.332291 -0.56864,-0.258334 -0.52522,-1.3125 z M 323,65 c 0,-0.55 0.47656,-1 1.05902,-1 0.58246,0 0.7809,0.45 0.44098,1 -0.33992,0.55 -0.81648,1 -1.05902,1 C 323.19844,66 323,65.55 323,65 Z m 33.61309,-1.182979 c 0.28881,-0.467304 0.94401,-0.590747 1.45601,-0.274316 1.30838,0.808625 1.16106,1.123962 -0.52511,1.123962 -0.80081,0 -1.21971,-0.382341 -0.9309,-0.849646 z m -26.87976,-0.941109 c 0.67834,-0.683418 1.48524,-0.990671 1.79313,-0.682784 0.30789,0.307887 -0.24711,0.867048 -1.23333,1.242579 -1.4252,0.542685 -1.54006,0.427821 -0.5598,-0.559795 z M 309.8125,62.316886 c 0.72187,-0.288871 1.58438,-0.253344 1.91667,0.07895 0.33229,0.332292 -0.25834,0.568641 -1.3125,0.52522 -1.16495,-0.04798 -1.4019,-0.284941 -0.60417,-0.604167 z M 192.55279,55.08541 c -0.32198,-0.520967 -0.0974,-1.248825 0.49907,-1.617462 0.59647,-0.368637 0.84293,-1.299731 0.5477,-2.069099 C 193.30432,50.629482 193.49865,50 194.03138,50 c 1.23948,0 1.27192,4.694514 0.0377,5.457295 -0.512,0.316431 -1.19434,0.149083 -1.51631,-0.371885 z"
         id="path2" />
    </g>
  </g>
</svg>
