<svg xmlns="http://www.w3.org/2000/svg" xmlns:xlink="http://www.w3.org/1999/xlink" fill='#EC4634' x="0px" y="0px" viewBox="0 0 100 73" xml:space="preserve">	<path d="M50,72.3c-12.9,0-25.8,0-38.7,0c-4.7,0-8.4-2.5-9.8-6.8C1.2,64.3,1,63.1,1,61.9c0-17,0-33.9,0-50.8C1,4.9,5.1,0.8,11.3,0.7  c11.8,0,23.5,0,35.3,0c14,0,27.9,0,41.9,0c5.2,0,9.1,2.9,10.2,7.7C98.9,9.3,99,10.1,99,11c0,16.9,0,33.9,0,50.8  c0,6.3-4.2,10.5-10.5,10.5C75.7,72.3,62.8,72.3,50,72.3L50,72.3z M11.2,7.2c0.4,0.4,0.6,0.7,0.9,0.9c11.5,9.9,23,19.8,34.5,29.8  c2.3,2,4.4,2,6.7,0c11-9.5,22-19,33-28.4c0.8-0.7,1.6-1.4,2.6-2.2C62.9,7.2,37.1,7.2,11.2,7.2z M59.9,40.6c-1,0.9-2,1.7-2.9,2.5  c-4.3,3.6-9.6,3.6-13.9,0c-1-0.8-2-1.7-3-2.6C30.6,49,21.3,57.4,11.8,65.9c25.6,0,50.9,0,76.4,0C78.7,57.3,69.3,49,59.9,40.6z   M64.8,36.4c9.3,8.3,18.5,16.5,27.8,24.7c0-16.3,0-32.3,0-48.7C83.2,20.5,74.1,28.4,64.8,36.4z M35.2,36.4  c-9.3-8-18.5-15.9-27.7-23.8c0,16.3,0,32.4,0,48.6C16.8,52.9,25.9,44.7,35.2,36.4z"></path></svg>